solid OpenSCAD_Model
  facet normal 0.866032 0.499989 0
    outer loop
      vertex -50.866 -77.5 0
      vertex -51.732 -76 -4
      vertex -51.732 -76 0
    endloop
  endfacet
  facet normal 0.866032 0.499989 0
    outer loop
      vertex -51.732 -76 -4
      vertex -50.866 -77.5 0
      vertex -50.866 -77.5 -4
    endloop
  endfacet
  facet normal 0 1 -0
    outer loop
      vertex -49.134 -77.5 -4
      vertex -50.866 -77.5 0
      vertex -49.134 -77.5 0
    endloop
  endfacet
  facet normal 0 1 0
    outer loop
      vertex -50.866 -77.5 0
      vertex -49.134 -77.5 -4
      vertex -50.866 -77.5 -4
    endloop
  endfacet
  facet normal -0.866032 0.499989 0
    outer loop
      vertex -49.134 -77.5 -4
      vertex -48.268 -76 0
      vertex -48.268 -76 -4
    endloop
  endfacet
  facet normal -0.866032 0.499989 0
    outer loop
      vertex -48.268 -76 0
      vertex -49.134 -77.5 -4
      vertex -49.134 -77.5 0
    endloop
  endfacet
  facet normal 0.866032 -0.499989 0
    outer loop
      vertex -51.732 -76 0
      vertex -50.866 -74.5 -4
      vertex -50.866 -74.5 0
    endloop
  endfacet
  facet normal 0.866032 -0.499989 0
    outer loop
      vertex -50.866 -74.5 -4
      vertex -51.732 -76 0
      vertex -51.732 -76 -4
    endloop
  endfacet
  facet normal 0 -1 0
    outer loop
      vertex -50.866 -74.5 -4
      vertex -49.134 -74.5 0
      vertex -50.866 -74.5 0
    endloop
  endfacet
  facet normal 0 -1 -0
    outer loop
      vertex -49.134 -74.5 0
      vertex -50.866 -74.5 -4
      vertex -49.134 -74.5 -4
    endloop
  endfacet
  facet normal -0.866032 -0.499989 0
    outer loop
      vertex -48.268 -76 -4
      vertex -49.134 -74.5 0
      vertex -49.134 -74.5 -4
    endloop
  endfacet
  facet normal -0.866032 -0.499989 0
    outer loop
      vertex -49.134 -74.5 0
      vertex -48.268 -76 -4
      vertex -48.268 -76 0
    endloop
  endfacet
  facet normal 0.980778 0.195125 -0
    outer loop
      vertex -53.7679 -77.5607 -18.1714
      vertex -54.0784 -76 -4
      vertex -53.7679 -77.5607 -4
    endloop
  endfacet
  facet normal 0.980778 0.195125 0
    outer loop
      vertex -54.0784 -76 -4
      vertex -53.7679 -77.5607 -18.1714
      vertex -54.0784 -76 -22.3333
    endloop
  endfacet
  facet normal 0.83146 0.555585 -0
    outer loop
      vertex -52.8838 -78.8838 -14.6431
      vertex -53.7679 -77.5607 -4
      vertex -52.8838 -78.8838 -4
    endloop
  endfacet
  facet normal 0.83146 0.555585 0
    outer loop
      vertex -53.7679 -77.5607 -4
      vertex -52.8838 -78.8838 -14.6431
      vertex -53.7679 -77.5607 -18.1714
    endloop
  endfacet
  facet normal -0.980778 0.195125 0
    outer loop
      vertex -46.2321 -77.5607 -18.1714
      vertex -45.9216 -76 -4
      vertex -45.9216 -76 -22.3333
    endloop
  endfacet
  facet normal -0.980778 0.195125 0
    outer loop
      vertex -45.9216 -76 -4
      vertex -46.2321 -77.5607 -18.1714
      vertex -46.2321 -77.5607 -4
    endloop
  endfacet
  facet normal -0.195125 -0.980778 0
    outer loop
      vertex -50 -71.9216 -25
      vertex -48.4393 -72.2321 -4
      vertex -50 -71.9216 -4
    endloop
  endfacet
  facet normal -0.195125 -0.980778 -0
    outer loop
      vertex -48.4393 -72.2321 -4
      vertex -50 -71.9216 -25
      vertex -48.4393 -72.2321 -25
    endloop
  endfacet
  facet normal 0.83146 -0.555585 0
    outer loop
      vertex -53.7679 -74.4393 -4
      vertex -52.8838 -73.1162 -25
      vertex -52.8838 -73.1162 -4
    endloop
  endfacet
  facet normal 0.83146 -0.555585 0
    outer loop
      vertex -52.8838 -73.1162 -25
      vertex -53.7679 -74.4393 -4
      vertex -53.7679 -74.4393 -25
    endloop
  endfacet
  facet normal 0.555585 -0.83146 0
    outer loop
      vertex -52.8838 -73.1162 -25
      vertex -51.5607 -72.2321 -4
      vertex -52.8838 -73.1162 -4
    endloop
  endfacet
  facet normal 0.555585 -0.83146 0
    outer loop
      vertex -51.5607 -72.2321 -4
      vertex -52.8838 -73.1162 -25
      vertex -51.5607 -72.2321 -25
    endloop
  endfacet
  facet normal 0.195125 0.980778 -0
    outer loop
      vertex -50 -80.0784 -11.4577
      vertex -51.5607 -79.7679 -4
      vertex -50 -80.0784 -4
    endloop
  endfacet
  facet normal 0.195125 0.980778 0
    outer loop
      vertex -51.5607 -79.7679 -4
      vertex -50 -80.0784 -11.4577
      vertex -51.5607 -79.7679 -12.2856
    endloop
  endfacet
  facet normal 0.555585 0.83146 -0
    outer loop
      vertex -51.5607 -79.7679 -12.2856
      vertex -52.8838 -78.8838 -4
      vertex -51.5607 -79.7679 -4
    endloop
  endfacet
  facet normal 0.555585 0.83146 0
    outer loop
      vertex -52.8838 -78.8838 -4
      vertex -51.5607 -79.7679 -12.2856
      vertex -52.8838 -78.8838 -14.6431
    endloop
  endfacet
  facet normal -0.195125 0.980778 0
    outer loop
      vertex -48.4393 -79.7679 -4
      vertex -50 -80.0784 -11.4577
      vertex -50 -80.0784 -4
    endloop
  endfacet
  facet normal -0.195125 0.980778 0
    outer loop
      vertex -50 -80.0784 -11.4577
      vertex -48.4393 -79.7679 -4
      vertex -48.4393 -79.7679 -12.2856
    endloop
  endfacet
  facet normal -0.83146 0.555585 0
    outer loop
      vertex -47.1162 -78.8838 -14.6431
      vertex -46.2321 -77.5607 -4
      vertex -46.2321 -77.5607 -18.1714
    endloop
  endfacet
  facet normal -0.83146 0.555585 0
    outer loop
      vertex -46.2321 -77.5607 -4
      vertex -47.1162 -78.8838 -14.6431
      vertex -47.1162 -78.8838 -4
    endloop
  endfacet
  facet normal -0.555585 0.83146 0
    outer loop
      vertex -47.1162 -78.8838 -4
      vertex -48.4393 -79.7679 -12.2856
      vertex -48.4393 -79.7679 -4
    endloop
  endfacet
  facet normal -0.555585 0.83146 0
    outer loop
      vertex -48.4393 -79.7679 -12.2856
      vertex -47.1162 -78.8838 -4
      vertex -47.1162 -78.8838 -14.6431
    endloop
  endfacet
  facet normal 0.980778 -0.195125 0
    outer loop
      vertex -54.0784 -76 -22.3333
      vertex -53.7679 -74.4393 -25
      vertex -53.7679 -74.4393 -4
    endloop
  endfacet
  facet normal 0.980778 -0.195125 0
    outer loop
      vertex -54.0784 -76 -22.3333
      vertex -53.7679 -74.4393 -4
      vertex -54.0784 -76 -4
    endloop
  endfacet
  facet normal 0.980762 -0.195208 -5.03559e-05
    outer loop
      vertex -53.7679 -74.4393 -25
      vertex -54.0784 -76 -22.3333
      vertex -53.8795 -75 -25
    endloop
  endfacet
  facet normal -0.980762 -0.195208 -5.03559e-05
    outer loop
      vertex -45.9216 -76 -22.3333
      vertex -46.2321 -74.4393 -25
      vertex -46.1205 -75 -25
    endloop
  endfacet
  facet normal -0.980778 -0.195125 0
    outer loop
      vertex -46.2321 -74.4393 -25
      vertex -45.9216 -76 -22.3333
      vertex -46.2321 -74.4393 -4
    endloop
  endfacet
  facet normal -0.980778 -0.195125 0
    outer loop
      vertex -46.2321 -74.4393 -4
      vertex -45.9216 -76 -22.3333
      vertex -45.9216 -76 -4
    endloop
  endfacet
  facet normal -0.83146 -0.555585 0
    outer loop
      vertex -46.2321 -74.4393 -25
      vertex -47.1162 -73.1162 -4
      vertex -47.1162 -73.1162 -25
    endloop
  endfacet
  facet normal -0.83146 -0.555585 0
    outer loop
      vertex -47.1162 -73.1162 -4
      vertex -46.2321 -74.4393 -25
      vertex -46.2321 -74.4393 -4
    endloop
  endfacet
  facet normal 0.195125 -0.980778 0
    outer loop
      vertex -51.5607 -72.2321 -25
      vertex -50 -71.9216 -4
      vertex -51.5607 -72.2321 -4
    endloop
  endfacet
  facet normal 0.195125 -0.980778 0
    outer loop
      vertex -50 -71.9216 -4
      vertex -51.5607 -72.2321 -25
      vertex -50 -71.9216 -25
    endloop
  endfacet
  facet normal -0.555585 -0.83146 0
    outer loop
      vertex -48.4393 -72.2321 -25
      vertex -47.1162 -73.1162 -4
      vertex -48.4393 -72.2321 -4
    endloop
  endfacet
  facet normal -0.555585 -0.83146 -0
    outer loop
      vertex -47.1162 -73.1162 -4
      vertex -48.4393 -72.2321 -25
      vertex -47.1162 -73.1162 -25
    endloop
  endfacet
  facet normal 0 0 -1
    outer loop
      vertex -48.268 -76 -4
      vertex -45.9216 -76 -4
      vertex -46.2321 -77.5607 -4
    endloop
  endfacet
  facet normal 0 0 -1
    outer loop
      vertex -49.134 -77.5 -4
      vertex -46.2321 -77.5607 -4
      vertex -47.1162 -78.8838 -4
    endloop
  endfacet
  facet normal 0 0 -1
    outer loop
      vertex -45.9216 -76 -4
      vertex -48.268 -76 -4
      vertex -46.2321 -74.4393 -4
    endloop
  endfacet
  facet normal 0 0 -1
    outer loop
      vertex -49.134 -74.5 -4
      vertex -46.2321 -74.4393 -4
      vertex -48.268 -76 -4
    endloop
  endfacet
  facet normal 0 0 -1
    outer loop
      vertex -49.134 -77.5 -4
      vertex -47.1162 -78.8838 -4
      vertex -48.4393 -79.7679 -4
    endloop
  endfacet
  facet normal 0 0 -1
    outer loop
      vertex -46.2321 -77.5607 -4
      vertex -49.134 -77.5 -4
      vertex -48.268 -76 -4
    endloop
  endfacet
  facet normal 0 0 -1
    outer loop
      vertex -50 -80.0784 -4
      vertex -49.134 -77.5 -4
      vertex -48.4393 -79.7679 -4
    endloop
  endfacet
  facet normal 0 0 -1
    outer loop
      vertex -50 -80.0784 -4
      vertex -50.866 -77.5 -4
      vertex -49.134 -77.5 -4
    endloop
  endfacet
  facet normal 0 0 -1
    outer loop
      vertex -51.5607 -79.7679 -4
      vertex -50.866 -77.5 -4
      vertex -50 -80.0784 -4
    endloop
  endfacet
  facet normal 0 0 -1
    outer loop
      vertex -52.8838 -78.8838 -4
      vertex -50.866 -77.5 -4
      vertex -51.5607 -79.7679 -4
    endloop
  endfacet
  facet normal 0 0 -1
    outer loop
      vertex -53.7679 -77.5607 -4
      vertex -50.866 -77.5 -4
      vertex -52.8838 -78.8838 -4
    endloop
  endfacet
  facet normal -0 0 -1
    outer loop
      vertex -46.2321 -74.4393 -4
      vertex -49.134 -74.5 -4
      vertex -47.1162 -73.1162 -4
    endloop
  endfacet
  facet normal -0 0 -1
    outer loop
      vertex -47.1162 -73.1162 -4
      vertex -49.134 -74.5 -4
      vertex -48.4393 -72.2321 -4
    endloop
  endfacet
  facet normal 0 0 -1
    outer loop
      vertex -49.134 -74.5 -4
      vertex -50 -71.9216 -4
      vertex -48.4393 -72.2321 -4
    endloop
  endfacet
  facet normal 0 0 -1
    outer loop
      vertex -50.866 -74.5 -4
      vertex -50 -71.9216 -4
      vertex -49.134 -74.5 -4
    endloop
  endfacet
  facet normal 0 0 -1
    outer loop
      vertex -50.866 -74.5 -4
      vertex -51.5607 -72.2321 -4
      vertex -50 -71.9216 -4
    endloop
  endfacet
  facet normal 0 0 -1
    outer loop
      vertex -53.7679 -74.4393 -4
      vertex -50.866 -74.5 -4
      vertex -51.732 -76 -4
    endloop
  endfacet
  facet normal -0 0 -1
    outer loop
      vertex -50.866 -77.5 -4
      vertex -53.7679 -77.5607 -4
      vertex -51.732 -76 -4
    endloop
  endfacet
  facet normal 0 0 -1
    outer loop
      vertex -50.866 -74.5 -4
      vertex -52.8838 -73.1162 -4
      vertex -51.5607 -72.2321 -4
    endloop
  endfacet
  facet normal 0 0 -1
    outer loop
      vertex -54.0784 -76 -4
      vertex -51.732 -76 -4
      vertex -53.7679 -77.5607 -4
    endloop
  endfacet
  facet normal 0 0 -1
    outer loop
      vertex -50.866 -74.5 -4
      vertex -53.7679 -74.4393 -4
      vertex -52.8838 -73.1162 -4
    endloop
  endfacet
  facet normal 0 0 -1
    outer loop
      vertex -51.732 -76 -4
      vertex -54.0784 -76 -4
      vertex -53.7679 -74.4393 -4
    endloop
  endfacet
  facet normal 0.866026 0.5 0
    outer loop
      vertex -0.866025 -77.5 0
      vertex -1.73205 -76 -4
      vertex -1.73205 -76 0
    endloop
  endfacet
  facet normal 0.866026 0.5 0
    outer loop
      vertex -1.73205 -76 -4
      vertex -0.866025 -77.5 0
      vertex -0.866025 -77.5 -4
    endloop
  endfacet
  facet normal 0 1 -0
    outer loop
      vertex 0.866025 -77.5 -4
      vertex -0.866025 -77.5 0
      vertex 0.866025 -77.5 0
    endloop
  endfacet
  facet normal 0 1 0
    outer loop
      vertex -0.866025 -77.5 0
      vertex 0.866025 -77.5 -4
      vertex -0.866025 -77.5 -4
    endloop
  endfacet
  facet normal -0.866026 0.5 0
    outer loop
      vertex 0.866025 -77.5 -4
      vertex 1.73205 -76 0
      vertex 1.73205 -76 -4
    endloop
  endfacet
  facet normal -0.866026 0.5 0
    outer loop
      vertex 1.73205 -76 0
      vertex 0.866025 -77.5 -4
      vertex 0.866025 -77.5 0
    endloop
  endfacet
  facet normal 0.866026 -0.5 0
    outer loop
      vertex -1.73205 -76 0
      vertex -0.866025 -74.5 -4
      vertex -0.866025 -74.5 0
    endloop
  endfacet
  facet normal 0.866026 -0.5 0
    outer loop
      vertex -0.866025 -74.5 -4
      vertex -1.73205 -76 0
      vertex -1.73205 -76 -4
    endloop
  endfacet
  facet normal 0 -1 0
    outer loop
      vertex -0.866025 -74.5 -4
      vertex 0.866025 -74.5 0
      vertex -0.866025 -74.5 0
    endloop
  endfacet
  facet normal 0 -1 -0
    outer loop
      vertex 0.866025 -74.5 0
      vertex -0.866025 -74.5 -4
      vertex 0.866025 -74.5 -4
    endloop
  endfacet
  facet normal -0.866026 -0.5 0
    outer loop
      vertex 1.73205 -76 -4
      vertex 0.866025 -74.5 0
      vertex 0.866025 -74.5 -4
    endloop
  endfacet
  facet normal -0.866026 -0.5 0
    outer loop
      vertex 0.866025 -74.5 0
      vertex 1.73205 -76 -4
      vertex 1.73205 -76 0
    endloop
  endfacet
  facet normal 0.980786 0.195089 -0
    outer loop
      vertex -3.76792 -77.5607 -18.1714
      vertex -4.07836 -76 -4
      vertex -3.76792 -77.5607 -4
    endloop
  endfacet
  facet normal 0.980786 0.195089 0
    outer loop
      vertex -4.07836 -76 -4
      vertex -3.76792 -77.5607 -18.1714
      vertex -4.07836 -76 -22.3333
    endloop
  endfacet
  facet normal 0.831466 0.555576 -0
    outer loop
      vertex -2.88384 -78.8838 -14.6431
      vertex -3.76792 -77.5607 -4
      vertex -2.88384 -78.8838 -4
    endloop
  endfacet
  facet normal 0.831466 0.555576 0
    outer loop
      vertex -3.76792 -77.5607 -4
      vertex -2.88384 -78.8838 -14.6431
      vertex -3.76792 -77.5607 -18.1714
    endloop
  endfacet
  facet normal -0.195123 -0.980779 0
    outer loop
      vertex 0 -71.9216 -25
      vertex 1.56072 -72.2321 -4
      vertex 0 -71.9216 -4
    endloop
  endfacet
  facet normal -0.195123 -0.980779 -0
    outer loop
      vertex 1.56072 -72.2321 -4
      vertex 0 -71.9216 -25
      vertex 1.56072 -72.2321 -25
    endloop
  endfacet
  facet normal -0.831466 -0.555576 0
    outer loop
      vertex 3.76792 -74.4393 -25
      vertex 2.88384 -73.1162 -4
      vertex 2.88384 -73.1162 -25
    endloop
  endfacet
  facet normal -0.831466 -0.555576 0
    outer loop
      vertex 2.88384 -73.1162 -4
      vertex 3.76792 -74.4393 -25
      vertex 3.76792 -74.4393 -4
    endloop
  endfacet
  facet normal 0.555579 0.831464 -0
    outer loop
      vertex -1.56072 -79.7679 -12.2856
      vertex -2.88384 -78.8838 -4
      vertex -1.56072 -79.7679 -4
    endloop
  endfacet
  facet normal 0.555579 0.831464 0
    outer loop
      vertex -2.88384 -78.8838 -4
      vertex -1.56072 -79.7679 -12.2856
      vertex -2.88384 -78.8838 -14.6431
    endloop
  endfacet
  facet normal -0.831466 0.555576 0
    outer loop
      vertex 2.88384 -78.8838 -14.6431
      vertex 3.76792 -77.5607 -4
      vertex 3.76792 -77.5607 -18.1714
    endloop
  endfacet
  facet normal -0.831466 0.555576 0
    outer loop
      vertex 3.76792 -77.5607 -4
      vertex 2.88384 -78.8838 -14.6431
      vertex 2.88384 -78.8838 -4
    endloop
  endfacet
  facet normal -0.195123 0.980779 0
    outer loop
      vertex 1.56072 -79.7679 -4
      vertex 0 -80.0784 -11.4577
      vertex 0 -80.0784 -4
    endloop
  endfacet
  facet normal -0.195123 0.980779 0
    outer loop
      vertex 0 -80.0784 -11.4577
      vertex 1.56072 -79.7679 -4
      vertex 1.56072 -79.7679 -12.2856
    endloop
  endfacet
  facet normal 0.980786 -0.195089 0
    outer loop
      vertex -4.07836 -76 -22.3333
      vertex -3.76792 -74.4393 -25
      vertex -3.76792 -74.4393 -4
    endloop
  endfacet
  facet normal 0.980786 -0.195089 0
    outer loop
      vertex -4.07836 -76 -22.3333
      vertex -3.76792 -74.4393 -4
      vertex -4.07836 -76 -4
    endloop
  endfacet
  facet normal 0.980785 -0.19509 -7.62867e-07
    outer loop
      vertex -3.76792 -74.4393 -25
      vertex -4.07836 -76 -22.3333
      vertex -3.87945 -75 -25
    endloop
  endfacet
  facet normal 0.555579 -0.831464 0
    outer loop
      vertex -2.88384 -73.1162 -25
      vertex -1.56072 -72.2321 -4
      vertex -2.88384 -73.1162 -4
    endloop
  endfacet
  facet normal 0.555579 -0.831464 0
    outer loop
      vertex -1.56072 -72.2321 -4
      vertex -2.88384 -73.1162 -25
      vertex -1.56072 -72.2321 -25
    endloop
  endfacet
  facet normal -0.555579 -0.831464 0
    outer loop
      vertex 1.56072 -72.2321 -25
      vertex 2.88384 -73.1162 -4
      vertex 1.56072 -72.2321 -4
    endloop
  endfacet
  facet normal -0.555579 -0.831464 -0
    outer loop
      vertex 2.88384 -73.1162 -4
      vertex 1.56072 -72.2321 -25
      vertex 2.88384 -73.1162 -25
    endloop
  endfacet
  facet normal -0.980785 -0.19509 -7.62867e-07
    outer loop
      vertex 4.07836 -76 -22.3333
      vertex 3.76792 -74.4393 -25
      vertex 3.87945 -75 -25
    endloop
  endfacet
  facet normal -0.980786 -0.195089 0
    outer loop
      vertex 3.76792 -74.4393 -25
      vertex 4.07836 -76 -22.3333
      vertex 3.76792 -74.4393 -4
    endloop
  endfacet
  facet normal -0.980786 -0.195089 0
    outer loop
      vertex 3.76792 -74.4393 -4
      vertex 4.07836 -76 -22.3333
      vertex 4.07836 -76 -4
    endloop
  endfacet
  facet normal 0.195123 0.980779 -0
    outer loop
      vertex 0 -80.0784 -11.4577
      vertex -1.56072 -79.7679 -4
      vertex 0 -80.0784 -4
    endloop
  endfacet
  facet normal 0.195123 0.980779 0
    outer loop
      vertex -1.56072 -79.7679 -4
      vertex 0 -80.0784 -11.4577
      vertex -1.56072 -79.7679 -12.2856
    endloop
  endfacet
  facet normal -0.980786 0.195089 0
    outer loop
      vertex 3.76792 -77.5607 -18.1714
      vertex 4.07836 -76 -4
      vertex 4.07836 -76 -22.3333
    endloop
  endfacet
  facet normal -0.980786 0.195089 0
    outer loop
      vertex 4.07836 -76 -4
      vertex 3.76792 -77.5607 -18.1714
      vertex 3.76792 -77.5607 -4
    endloop
  endfacet
  facet normal -0.555579 0.831464 0
    outer loop
      vertex 2.88384 -78.8838 -4
      vertex 1.56072 -79.7679 -12.2856
      vertex 1.56072 -79.7679 -4
    endloop
  endfacet
  facet normal -0.555579 0.831464 0
    outer loop
      vertex 1.56072 -79.7679 -12.2856
      vertex 2.88384 -78.8838 -4
      vertex 2.88384 -78.8838 -14.6431
    endloop
  endfacet
  facet normal 0.831466 -0.555576 0
    outer loop
      vertex -3.76792 -74.4393 -4
      vertex -2.88384 -73.1162 -25
      vertex -2.88384 -73.1162 -4
    endloop
  endfacet
  facet normal 0.831466 -0.555576 0
    outer loop
      vertex -2.88384 -73.1162 -25
      vertex -3.76792 -74.4393 -4
      vertex -3.76792 -74.4393 -25
    endloop
  endfacet
  facet normal 0 0 -1
    outer loop
      vertex 1.73205 -76 -4
      vertex 4.07836 -76 -4
      vertex 3.76792 -77.5607 -4
    endloop
  endfacet
  facet normal 0 0 -1
    outer loop
      vertex 0.866025 -77.5 -4
      vertex 3.76792 -77.5607 -4
      vertex 2.88384 -78.8838 -4
    endloop
  endfacet
  facet normal 0 0 -1
    outer loop
      vertex 4.07836 -76 -4
      vertex 1.73205 -76 -4
      vertex 3.76792 -74.4393 -4
    endloop
  endfacet
  facet normal 0 0 -1
    outer loop
      vertex 0.866025 -74.5 -4
      vertex 3.76792 -74.4393 -4
      vertex 1.73205 -76 -4
    endloop
  endfacet
  facet normal 0 0 -1
    outer loop
      vertex 0.866025 -77.5 -4
      vertex 2.88384 -78.8838 -4
      vertex 1.56072 -79.7679 -4
    endloop
  endfacet
  facet normal 0 0 -1
    outer loop
      vertex 3.76792 -77.5607 -4
      vertex 0.866025 -77.5 -4
      vertex 1.73205 -76 -4
    endloop
  endfacet
  facet normal 0 0 -1
    outer loop
      vertex 0 -80.0784 -4
      vertex 0.866025 -77.5 -4
      vertex 1.56072 -79.7679 -4
    endloop
  endfacet
  facet normal 0 0 -1
    outer loop
      vertex 0 -80.0784 -4
      vertex -0.866025 -77.5 -4
      vertex 0.866025 -77.5 -4
    endloop
  endfacet
  facet normal 0 0 -1
    outer loop
      vertex -1.56072 -79.7679 -4
      vertex -0.866025 -77.5 -4
      vertex 0 -80.0784 -4
    endloop
  endfacet
  facet normal 0 0 -1
    outer loop
      vertex -2.88384 -78.8838 -4
      vertex -0.866025 -77.5 -4
      vertex -1.56072 -79.7679 -4
    endloop
  endfacet
  facet normal 0 0 -1
    outer loop
      vertex -3.76792 -77.5607 -4
      vertex -0.866025 -77.5 -4
      vertex -2.88384 -78.8838 -4
    endloop
  endfacet
  facet normal -0 0 -1
    outer loop
      vertex 3.76792 -74.4393 -4
      vertex 0.866025 -74.5 -4
      vertex 2.88384 -73.1162 -4
    endloop
  endfacet
  facet normal -0 0 -1
    outer loop
      vertex 2.88384 -73.1162 -4
      vertex 0.866025 -74.5 -4
      vertex 1.56072 -72.2321 -4
    endloop
  endfacet
  facet normal 0 0 -1
    outer loop
      vertex 0.866025 -74.5 -4
      vertex 0 -71.9216 -4
      vertex 1.56072 -72.2321 -4
    endloop
  endfacet
  facet normal 0 0 -1
    outer loop
      vertex -0.866025 -74.5 -4
      vertex 0 -71.9216 -4
      vertex 0.866025 -74.5 -4
    endloop
  endfacet
  facet normal 0 0 -1
    outer loop
      vertex -0.866025 -74.5 -4
      vertex -1.56072 -72.2321 -4
      vertex 0 -71.9216 -4
    endloop
  endfacet
  facet normal 0 0 -1
    outer loop
      vertex -3.76792 -74.4393 -4
      vertex -0.866025 -74.5 -4
      vertex -1.73205 -76 -4
    endloop
  endfacet
  facet normal -0 0 -1
    outer loop
      vertex -0.866025 -77.5 -4
      vertex -3.76792 -77.5607 -4
      vertex -1.73205 -76 -4
    endloop
  endfacet
  facet normal 0 0 -1
    outer loop
      vertex -0.866025 -74.5 -4
      vertex -2.88384 -73.1162 -4
      vertex -1.56072 -72.2321 -4
    endloop
  endfacet
  facet normal 0 0 -1
    outer loop
      vertex -4.07836 -76 -4
      vertex -1.73205 -76 -4
      vertex -3.76792 -77.5607 -4
    endloop
  endfacet
  facet normal 0 0 -1
    outer loop
      vertex -0.866025 -74.5 -4
      vertex -3.76792 -74.4393 -4
      vertex -2.88384 -73.1162 -4
    endloop
  endfacet
  facet normal 0 0 -1
    outer loop
      vertex -1.73205 -76 -4
      vertex -4.07836 -76 -4
      vertex -3.76792 -74.4393 -4
    endloop
  endfacet
  facet normal 0.195123 -0.980779 0
    outer loop
      vertex -1.56072 -72.2321 -25
      vertex 0 -71.9216 -4
      vertex -1.56072 -72.2321 -4
    endloop
  endfacet
  facet normal 0.195123 -0.980779 0
    outer loop
      vertex 0 -71.9216 -4
      vertex -1.56072 -72.2321 -25
      vertex 0 -71.9216 -25
    endloop
  endfacet
  facet normal 0.866032 0.499989 0
    outer loop
      vertex 49.134 -77.5 0
      vertex 48.268 -76 -4
      vertex 48.268 -76 0
    endloop
  endfacet
  facet normal 0.866032 0.499989 0
    outer loop
      vertex 48.268 -76 -4
      vertex 49.134 -77.5 0
      vertex 49.134 -77.5 -4
    endloop
  endfacet
  facet normal 0 1 -0
    outer loop
      vertex 50.866 -77.5 -4
      vertex 49.134 -77.5 0
      vertex 50.866 -77.5 0
    endloop
  endfacet
  facet normal 0 1 0
    outer loop
      vertex 49.134 -77.5 0
      vertex 50.866 -77.5 -4
      vertex 49.134 -77.5 -4
    endloop
  endfacet
  facet normal -0.866032 0.499989 0
    outer loop
      vertex 50.866 -77.5 -4
      vertex 51.732 -76 0
      vertex 51.732 -76 -4
    endloop
  endfacet
  facet normal -0.866032 0.499989 0
    outer loop
      vertex 51.732 -76 0
      vertex 50.866 -77.5 -4
      vertex 50.866 -77.5 0
    endloop
  endfacet
  facet normal 0.866032 -0.499989 0
    outer loop
      vertex 48.268 -76 0
      vertex 49.134 -74.5 -4
      vertex 49.134 -74.5 0
    endloop
  endfacet
  facet normal 0.866032 -0.499989 0
    outer loop
      vertex 49.134 -74.5 -4
      vertex 48.268 -76 0
      vertex 48.268 -76 -4
    endloop
  endfacet
  facet normal 0 -1 0
    outer loop
      vertex 49.134 -74.5 -4
      vertex 50.866 -74.5 0
      vertex 49.134 -74.5 0
    endloop
  endfacet
  facet normal 0 -1 -0
    outer loop
      vertex 50.866 -74.5 0
      vertex 49.134 -74.5 -4
      vertex 50.866 -74.5 -4
    endloop
  endfacet
  facet normal -0.866032 -0.499989 0
    outer loop
      vertex 51.732 -76 -4
      vertex 50.866 -74.5 0
      vertex 50.866 -74.5 -4
    endloop
  endfacet
  facet normal -0.866032 -0.499989 0
    outer loop
      vertex 50.866 -74.5 0
      vertex 51.732 -76 -4
      vertex 51.732 -76 0
    endloop
  endfacet
  facet normal 0.980778 0.195125 -0
    outer loop
      vertex 46.2321 -77.5607 -18.1714
      vertex 45.9216 -76 -4
      vertex 46.2321 -77.5607 -4
    endloop
  endfacet
  facet normal 0.980778 0.195125 0
    outer loop
      vertex 45.9216 -76 -4
      vertex 46.2321 -77.5607 -18.1714
      vertex 45.9216 -76 -22.3333
    endloop
  endfacet
  facet normal 0.83146 0.555585 -0
    outer loop
      vertex 47.1162 -78.8838 -14.6431
      vertex 46.2321 -77.5607 -4
      vertex 47.1162 -78.8838 -4
    endloop
  endfacet
  facet normal 0.83146 0.555585 0
    outer loop
      vertex 46.2321 -77.5607 -4
      vertex 47.1162 -78.8838 -14.6431
      vertex 46.2321 -77.5607 -18.1714
    endloop
  endfacet
  facet normal -0.980778 0.195125 0
    outer loop
      vertex 53.7679 -77.5607 -18.1714
      vertex 54.0784 -76 -4
      vertex 54.0784 -76 -22.3333
    endloop
  endfacet
  facet normal -0.980778 0.195125 0
    outer loop
      vertex 54.0784 -76 -4
      vertex 53.7679 -77.5607 -18.1714
      vertex 53.7679 -77.5607 -4
    endloop
  endfacet
  facet normal -0.195125 -0.980778 0
    outer loop
      vertex 50 -71.9216 -25
      vertex 51.5607 -72.2321 -4
      vertex 50 -71.9216 -4
    endloop
  endfacet
  facet normal -0.195125 -0.980778 -0
    outer loop
      vertex 51.5607 -72.2321 -4
      vertex 50 -71.9216 -25
      vertex 51.5607 -72.2321 -25
    endloop
  endfacet
  facet normal 0.83146 -0.555585 0
    outer loop
      vertex 46.2321 -74.4393 -4
      vertex 47.1162 -73.1162 -25
      vertex 47.1162 -73.1162 -4
    endloop
  endfacet
  facet normal 0.83146 -0.555585 0
    outer loop
      vertex 47.1162 -73.1162 -25
      vertex 46.2321 -74.4393 -4
      vertex 46.2321 -74.4393 -25
    endloop
  endfacet
  facet normal 0.555585 -0.83146 0
    outer loop
      vertex 47.1162 -73.1162 -25
      vertex 48.4393 -72.2321 -4
      vertex 47.1162 -73.1162 -4
    endloop
  endfacet
  facet normal 0.555585 -0.83146 0
    outer loop
      vertex 48.4393 -72.2321 -4
      vertex 47.1162 -73.1162 -25
      vertex 48.4393 -72.2321 -25
    endloop
  endfacet
  facet normal 0.195125 0.980778 -0
    outer loop
      vertex 50 -80.0784 -11.4577
      vertex 48.4393 -79.7679 -4
      vertex 50 -80.0784 -4
    endloop
  endfacet
  facet normal 0.195125 0.980778 0
    outer loop
      vertex 48.4393 -79.7679 -4
      vertex 50 -80.0784 -11.4577
      vertex 48.4393 -79.7679 -12.2856
    endloop
  endfacet
  facet normal 0.555585 0.83146 -0
    outer loop
      vertex 48.4393 -79.7679 -12.2856
      vertex 47.1162 -78.8838 -4
      vertex 48.4393 -79.7679 -4
    endloop
  endfacet
  facet normal 0.555585 0.83146 0
    outer loop
      vertex 47.1162 -78.8838 -4
      vertex 48.4393 -79.7679 -12.2856
      vertex 47.1162 -78.8838 -14.6431
    endloop
  endfacet
  facet normal -0.195125 0.980778 0
    outer loop
      vertex 51.5607 -79.7679 -4
      vertex 50 -80.0784 -11.4577
      vertex 50 -80.0784 -4
    endloop
  endfacet
  facet normal -0.195125 0.980778 0
    outer loop
      vertex 50 -80.0784 -11.4577
      vertex 51.5607 -79.7679 -4
      vertex 51.5607 -79.7679 -12.2856
    endloop
  endfacet
  facet normal -0.83146 0.555585 0
    outer loop
      vertex 52.8838 -78.8838 -14.6431
      vertex 53.7679 -77.5607 -4
      vertex 53.7679 -77.5607 -18.1714
    endloop
  endfacet
  facet normal -0.83146 0.555585 0
    outer loop
      vertex 53.7679 -77.5607 -4
      vertex 52.8838 -78.8838 -14.6431
      vertex 52.8838 -78.8838 -4
    endloop
  endfacet
  facet normal -0.555585 0.83146 0
    outer loop
      vertex 52.8838 -78.8838 -4
      vertex 51.5607 -79.7679 -12.2856
      vertex 51.5607 -79.7679 -4
    endloop
  endfacet
  facet normal -0.555585 0.83146 0
    outer loop
      vertex 51.5607 -79.7679 -12.2856
      vertex 52.8838 -78.8838 -4
      vertex 52.8838 -78.8838 -14.6431
    endloop
  endfacet
  facet normal 0.980778 -0.195125 0
    outer loop
      vertex 45.9216 -76 -22.3333
      vertex 46.2321 -74.4393 -25
      vertex 46.2321 -74.4393 -4
    endloop
  endfacet
  facet normal 0.980778 -0.195125 0
    outer loop
      vertex 45.9216 -76 -22.3333
      vertex 46.2321 -74.4393 -4
      vertex 45.9216 -76 -4
    endloop
  endfacet
  facet normal 0.980762 -0.195208 -5.03559e-05
    outer loop
      vertex 46.2321 -74.4393 -25
      vertex 45.9216 -76 -22.3333
      vertex 46.1205 -75 -25
    endloop
  endfacet
  facet normal -0.980762 -0.195208 -5.03559e-05
    outer loop
      vertex 54.0784 -76 -22.3333
      vertex 53.7679 -74.4393 -25
      vertex 53.8795 -75 -25
    endloop
  endfacet
  facet normal -0.980778 -0.195125 0
    outer loop
      vertex 53.7679 -74.4393 -25
      vertex 54.0784 -76 -22.3333
      vertex 53.7679 -74.4393 -4
    endloop
  endfacet
  facet normal -0.980778 -0.195125 0
    outer loop
      vertex 53.7679 -74.4393 -4
      vertex 54.0784 -76 -22.3333
      vertex 54.0784 -76 -4
    endloop
  endfacet
  facet normal -0.83146 -0.555585 0
    outer loop
      vertex 53.7679 -74.4393 -25
      vertex 52.8838 -73.1162 -4
      vertex 52.8838 -73.1162 -25
    endloop
  endfacet
  facet normal -0.83146 -0.555585 0
    outer loop
      vertex 52.8838 -73.1162 -4
      vertex 53.7679 -74.4393 -25
      vertex 53.7679 -74.4393 -4
    endloop
  endfacet
  facet normal 0.195125 -0.980778 0
    outer loop
      vertex 48.4393 -72.2321 -25
      vertex 50 -71.9216 -4
      vertex 48.4393 -72.2321 -4
    endloop
  endfacet
  facet normal 0.195125 -0.980778 0
    outer loop
      vertex 50 -71.9216 -4
      vertex 48.4393 -72.2321 -25
      vertex 50 -71.9216 -25
    endloop
  endfacet
  facet normal -0.555585 -0.83146 0
    outer loop
      vertex 51.5607 -72.2321 -25
      vertex 52.8838 -73.1162 -4
      vertex 51.5607 -72.2321 -4
    endloop
  endfacet
  facet normal -0.555585 -0.83146 -0
    outer loop
      vertex 52.8838 -73.1162 -4
      vertex 51.5607 -72.2321 -25
      vertex 52.8838 -73.1162 -25
    endloop
  endfacet
  facet normal 0 0 -1
    outer loop
      vertex 51.732 -76 -4
      vertex 54.0784 -76 -4
      vertex 53.7679 -77.5607 -4
    endloop
  endfacet
  facet normal 0 0 -1
    outer loop
      vertex 50.866 -77.5 -4
      vertex 53.7679 -77.5607 -4
      vertex 52.8838 -78.8838 -4
    endloop
  endfacet
  facet normal 0 0 -1
    outer loop
      vertex 54.0784 -76 -4
      vertex 51.732 -76 -4
      vertex 53.7679 -74.4393 -4
    endloop
  endfacet
  facet normal 0 0 -1
    outer loop
      vertex 50.866 -74.5 -4
      vertex 53.7679 -74.4393 -4
      vertex 51.732 -76 -4
    endloop
  endfacet
  facet normal 0 0 -1
    outer loop
      vertex 50.866 -77.5 -4
      vertex 52.8838 -78.8838 -4
      vertex 51.5607 -79.7679 -4
    endloop
  endfacet
  facet normal 0 0 -1
    outer loop
      vertex 53.7679 -77.5607 -4
      vertex 50.866 -77.5 -4
      vertex 51.732 -76 -4
    endloop
  endfacet
  facet normal 0 0 -1
    outer loop
      vertex 50 -80.0784 -4
      vertex 50.866 -77.5 -4
      vertex 51.5607 -79.7679 -4
    endloop
  endfacet
  facet normal 0 0 -1
    outer loop
      vertex 50 -80.0784 -4
      vertex 49.134 -77.5 -4
      vertex 50.866 -77.5 -4
    endloop
  endfacet
  facet normal 0 0 -1
    outer loop
      vertex 48.4393 -79.7679 -4
      vertex 49.134 -77.5 -4
      vertex 50 -80.0784 -4
    endloop
  endfacet
  facet normal 0 0 -1
    outer loop
      vertex 47.1162 -78.8838 -4
      vertex 49.134 -77.5 -4
      vertex 48.4393 -79.7679 -4
    endloop
  endfacet
  facet normal 0 0 -1
    outer loop
      vertex 46.2321 -77.5607 -4
      vertex 49.134 -77.5 -4
      vertex 47.1162 -78.8838 -4
    endloop
  endfacet
  facet normal -0 0 -1
    outer loop
      vertex 53.7679 -74.4393 -4
      vertex 50.866 -74.5 -4
      vertex 52.8838 -73.1162 -4
    endloop
  endfacet
  facet normal -0 0 -1
    outer loop
      vertex 52.8838 -73.1162 -4
      vertex 50.866 -74.5 -4
      vertex 51.5607 -72.2321 -4
    endloop
  endfacet
  facet normal 0 0 -1
    outer loop
      vertex 50.866 -74.5 -4
      vertex 50 -71.9216 -4
      vertex 51.5607 -72.2321 -4
    endloop
  endfacet
  facet normal 0 0 -1
    outer loop
      vertex 49.134 -74.5 -4
      vertex 50 -71.9216 -4
      vertex 50.866 -74.5 -4
    endloop
  endfacet
  facet normal 0 0 -1
    outer loop
      vertex 49.134 -74.5 -4
      vertex 48.4393 -72.2321 -4
      vertex 50 -71.9216 -4
    endloop
  endfacet
  facet normal 0 0 -1
    outer loop
      vertex 46.2321 -74.4393 -4
      vertex 49.134 -74.5 -4
      vertex 48.268 -76 -4
    endloop
  endfacet
  facet normal -0 0 -1
    outer loop
      vertex 49.134 -77.5 -4
      vertex 46.2321 -77.5607 -4
      vertex 48.268 -76 -4
    endloop
  endfacet
  facet normal 0 0 -1
    outer loop
      vertex 49.134 -74.5 -4
      vertex 47.1162 -73.1162 -4
      vertex 48.4393 -72.2321 -4
    endloop
  endfacet
  facet normal 0 0 -1
    outer loop
      vertex 45.9216 -76 -4
      vertex 48.268 -76 -4
      vertex 46.2321 -77.5607 -4
    endloop
  endfacet
  facet normal 0 0 -1
    outer loop
      vertex 49.134 -74.5 -4
      vertex 46.2321 -74.4393 -4
      vertex 47.1162 -73.1162 -4
    endloop
  endfacet
  facet normal 0 0 -1
    outer loop
      vertex 48.268 -76 -4
      vertex 45.9216 -76 -4
      vertex 46.2321 -74.4393 -4
    endloop
  endfacet
  facet normal 0.866032 0.499989 0
    outer loop
      vertex -50.866 74.5 0
      vertex -51.732 76 -4
      vertex -51.732 76 0
    endloop
  endfacet
  facet normal 0.866032 0.499989 0
    outer loop
      vertex -51.732 76 -4
      vertex -50.866 74.5 0
      vertex -50.866 74.5 -4
    endloop
  endfacet
  facet normal 0 1 -0
    outer loop
      vertex -49.134 74.5 -4
      vertex -50.866 74.5 0
      vertex -49.134 74.5 0
    endloop
  endfacet
  facet normal 0 1 0
    outer loop
      vertex -50.866 74.5 0
      vertex -49.134 74.5 -4
      vertex -50.866 74.5 -4
    endloop
  endfacet
  facet normal -0.866032 0.499989 0
    outer loop
      vertex -49.134 74.5 -4
      vertex -48.268 76 0
      vertex -48.268 76 -4
    endloop
  endfacet
  facet normal -0.866032 0.499989 0
    outer loop
      vertex -48.268 76 0
      vertex -49.134 74.5 -4
      vertex -49.134 74.5 0
    endloop
  endfacet
  facet normal 0.866032 -0.499989 0
    outer loop
      vertex -51.732 76 0
      vertex -50.866 77.5 -4
      vertex -50.866 77.5 0
    endloop
  endfacet
  facet normal 0.866032 -0.499989 0
    outer loop
      vertex -50.866 77.5 -4
      vertex -51.732 76 0
      vertex -51.732 76 -4
    endloop
  endfacet
  facet normal 0 -1 0
    outer loop
      vertex -50.866 77.5 -4
      vertex -49.134 77.5 0
      vertex -50.866 77.5 0
    endloop
  endfacet
  facet normal 0 -1 -0
    outer loop
      vertex -49.134 77.5 0
      vertex -50.866 77.5 -4
      vertex -49.134 77.5 -4
    endloop
  endfacet
  facet normal -0.866032 -0.499989 0
    outer loop
      vertex -48.268 76 -4
      vertex -49.134 77.5 0
      vertex -49.134 77.5 -4
    endloop
  endfacet
  facet normal -0.866032 -0.499989 0
    outer loop
      vertex -49.134 77.5 0
      vertex -48.268 76 -4
      vertex -48.268 76 0
    endloop
  endfacet
  facet normal 0.980778 0.195125 0
    outer loop
      vertex -53.7679 74.4393 -4
      vertex -54.0784 76 -22.3333
      vertex -54.0784 76 -4
    endloop
  endfacet
  facet normal 0.980778 0.195125 -0
    outer loop
      vertex -53.7679 74.4393 -25
      vertex -54.0784 76 -22.3333
      vertex -53.7679 74.4393 -4
    endloop
  endfacet
  facet normal 0.980762 0.195208 -5.03559e-05
    outer loop
      vertex -54.0784 76 -22.3333
      vertex -53.7679 74.4393 -25
      vertex -53.8795 75 -25
    endloop
  endfacet
  facet normal 0.83146 0.555585 0
    outer loop
      vertex -52.8838 73.1162 -4
      vertex -53.7679 74.4393 -25
      vertex -53.7679 74.4393 -4
    endloop
  endfacet
  facet normal 0.83146 0.555585 0
    outer loop
      vertex -53.7679 74.4393 -25
      vertex -52.8838 73.1162 -4
      vertex -52.8838 73.1162 -25
    endloop
  endfacet
  facet normal -0.980762 0.195208 -5.03559e-05
    outer loop
      vertex -46.2321 74.4393 -25
      vertex -45.9216 76 -22.3333
      vertex -46.1205 75 -25
    endloop
  endfacet
  facet normal -0.980778 0.195125 0
    outer loop
      vertex -45.9216 76 -22.3333
      vertex -46.2321 74.4393 -25
      vertex -46.2321 74.4393 -4
    endloop
  endfacet
  facet normal -0.980778 0.195125 0
    outer loop
      vertex -45.9216 76 -22.3333
      vertex -46.2321 74.4393 -4
      vertex -45.9216 76 -4
    endloop
  endfacet
  facet normal -0.195125 -0.980778 0
    outer loop
      vertex -50 80.0784 -11.4577
      vertex -48.4393 79.7679 -4
      vertex -50 80.0784 -4
    endloop
  endfacet
  facet normal -0.195125 -0.980778 -0
    outer loop
      vertex -48.4393 79.7679 -4
      vertex -50 80.0784 -11.4577
      vertex -48.4393 79.7679 -12.2856
    endloop
  endfacet
  facet normal 0.83146 -0.555585 0
    outer loop
      vertex -53.7679 77.5607 -4
      vertex -52.8838 78.8838 -14.6431
      vertex -52.8838 78.8838 -4
    endloop
  endfacet
  facet normal 0.83146 -0.555585 0
    outer loop
      vertex -52.8838 78.8838 -14.6431
      vertex -53.7679 77.5607 -4
      vertex -53.7679 77.5607 -18.1714
    endloop
  endfacet
  facet normal 0.555585 -0.83146 0
    outer loop
      vertex -52.8838 78.8838 -4
      vertex -51.5607 79.7679 -12.2856
      vertex -51.5607 79.7679 -4
    endloop
  endfacet
  facet normal 0.555585 -0.83146 0
    outer loop
      vertex -51.5607 79.7679 -12.2856
      vertex -52.8838 78.8838 -4
      vertex -52.8838 78.8838 -14.6431
    endloop
  endfacet
  facet normal 0.195125 0.980778 -0
    outer loop
      vertex -50 71.9216 -25
      vertex -51.5607 72.2321 -4
      vertex -50 71.9216 -4
    endloop
  endfacet
  facet normal 0.195125 0.980778 0
    outer loop
      vertex -51.5607 72.2321 -4
      vertex -50 71.9216 -25
      vertex -51.5607 72.2321 -25
    endloop
  endfacet
  facet normal 0.555585 0.83146 -0
    outer loop
      vertex -51.5607 72.2321 -25
      vertex -52.8838 73.1162 -4
      vertex -51.5607 72.2321 -4
    endloop
  endfacet
  facet normal 0.555585 0.83146 0
    outer loop
      vertex -52.8838 73.1162 -4
      vertex -51.5607 72.2321 -25
      vertex -52.8838 73.1162 -25
    endloop
  endfacet
  facet normal -0.195125 0.980778 0
    outer loop
      vertex -48.4393 72.2321 -25
      vertex -50 71.9216 -4
      vertex -48.4393 72.2321 -4
    endloop
  endfacet
  facet normal -0.195125 0.980778 0
    outer loop
      vertex -50 71.9216 -4
      vertex -48.4393 72.2321 -25
      vertex -50 71.9216 -25
    endloop
  endfacet
  facet normal -0.83146 0.555585 0
    outer loop
      vertex -47.1162 73.1162 -25
      vertex -46.2321 74.4393 -4
      vertex -46.2321 74.4393 -25
    endloop
  endfacet
  facet normal -0.83146 0.555585 0
    outer loop
      vertex -46.2321 74.4393 -4
      vertex -47.1162 73.1162 -25
      vertex -47.1162 73.1162 -4
    endloop
  endfacet
  facet normal -0.555585 0.83146 0
    outer loop
      vertex -47.1162 73.1162 -25
      vertex -48.4393 72.2321 -4
      vertex -47.1162 73.1162 -4
    endloop
  endfacet
  facet normal -0.555585 0.83146 0
    outer loop
      vertex -48.4393 72.2321 -4
      vertex -47.1162 73.1162 -25
      vertex -48.4393 72.2321 -25
    endloop
  endfacet
  facet normal 0.980778 -0.195125 0
    outer loop
      vertex -54.0784 76 -4
      vertex -53.7679 77.5607 -18.1714
      vertex -53.7679 77.5607 -4
    endloop
  endfacet
  facet normal 0.980778 -0.195125 0
    outer loop
      vertex -53.7679 77.5607 -18.1714
      vertex -54.0784 76 -4
      vertex -54.0784 76 -22.3333
    endloop
  endfacet
  facet normal -0.980778 -0.195125 -0
    outer loop
      vertex -45.9216 76 -4
      vertex -46.2321 77.5607 -18.1714
      vertex -45.9216 76 -22.3333
    endloop
  endfacet
  facet normal -0.980778 -0.195125 0
    outer loop
      vertex -46.2321 77.5607 -18.1714
      vertex -45.9216 76 -4
      vertex -46.2321 77.5607 -4
    endloop
  endfacet
  facet normal -0.83146 -0.555585 -0
    outer loop
      vertex -46.2321 77.5607 -4
      vertex -47.1162 78.8838 -14.6431
      vertex -46.2321 77.5607 -18.1714
    endloop
  endfacet
  facet normal -0.83146 -0.555585 0
    outer loop
      vertex -47.1162 78.8838 -14.6431
      vertex -46.2321 77.5607 -4
      vertex -47.1162 78.8838 -4
    endloop
  endfacet
  facet normal 0.195125 -0.980778 0
    outer loop
      vertex -51.5607 79.7679 -4
      vertex -50 80.0784 -11.4577
      vertex -50 80.0784 -4
    endloop
  endfacet
  facet normal 0.195125 -0.980778 0
    outer loop
      vertex -50 80.0784 -11.4577
      vertex -51.5607 79.7679 -4
      vertex -51.5607 79.7679 -12.2856
    endloop
  endfacet
  facet normal -0.555585 -0.83146 0
    outer loop
      vertex -48.4393 79.7679 -12.2856
      vertex -47.1162 78.8838 -4
      vertex -48.4393 79.7679 -4
    endloop
  endfacet
  facet normal -0.555585 -0.83146 -0
    outer loop
      vertex -47.1162 78.8838 -4
      vertex -48.4393 79.7679 -12.2856
      vertex -47.1162 78.8838 -14.6431
    endloop
  endfacet
  facet normal 0 0 -1
    outer loop
      vertex -48.268 76 -4
      vertex -45.9216 76 -4
      vertex -46.2321 74.4393 -4
    endloop
  endfacet
  facet normal 0 0 -1
    outer loop
      vertex -49.134 74.5 -4
      vertex -46.2321 74.4393 -4
      vertex -47.1162 73.1162 -4
    endloop
  endfacet
  facet normal 0 0 -1
    outer loop
      vertex -45.9216 76 -4
      vertex -48.268 76 -4
      vertex -46.2321 77.5607 -4
    endloop
  endfacet
  facet normal 0 0 -1
    outer loop
      vertex -49.134 77.5 -4
      vertex -46.2321 77.5607 -4
      vertex -48.268 76 -4
    endloop
  endfacet
  facet normal 0 0 -1
    outer loop
      vertex -49.134 74.5 -4
      vertex -47.1162 73.1162 -4
      vertex -48.4393 72.2321 -4
    endloop
  endfacet
  facet normal 0 0 -1
    outer loop
      vertex -46.2321 74.4393 -4
      vertex -49.134 74.5 -4
      vertex -48.268 76 -4
    endloop
  endfacet
  facet normal 0 0 -1
    outer loop
      vertex -50 71.9216 -4
      vertex -49.134 74.5 -4
      vertex -48.4393 72.2321 -4
    endloop
  endfacet
  facet normal 0 0 -1
    outer loop
      vertex -50 71.9216 -4
      vertex -50.866 74.5 -4
      vertex -49.134 74.5 -4
    endloop
  endfacet
  facet normal 0 0 -1
    outer loop
      vertex -51.5607 72.2321 -4
      vertex -50.866 74.5 -4
      vertex -50 71.9216 -4
    endloop
  endfacet
  facet normal 0 0 -1
    outer loop
      vertex -52.8838 73.1162 -4
      vertex -50.866 74.5 -4
      vertex -51.5607 72.2321 -4
    endloop
  endfacet
  facet normal 0 0 -1
    outer loop
      vertex -53.7679 74.4393 -4
      vertex -50.866 74.5 -4
      vertex -52.8838 73.1162 -4
    endloop
  endfacet
  facet normal -0 0 -1
    outer loop
      vertex -46.2321 77.5607 -4
      vertex -49.134 77.5 -4
      vertex -47.1162 78.8838 -4
    endloop
  endfacet
  facet normal -0 0 -1
    outer loop
      vertex -47.1162 78.8838 -4
      vertex -49.134 77.5 -4
      vertex -48.4393 79.7679 -4
    endloop
  endfacet
  facet normal 0 0 -1
    outer loop
      vertex -49.134 77.5 -4
      vertex -50 80.0784 -4
      vertex -48.4393 79.7679 -4
    endloop
  endfacet
  facet normal 0 0 -1
    outer loop
      vertex -50.866 77.5 -4
      vertex -50 80.0784 -4
      vertex -49.134 77.5 -4
    endloop
  endfacet
  facet normal 0 0 -1
    outer loop
      vertex -50.866 77.5 -4
      vertex -51.5607 79.7679 -4
      vertex -50 80.0784 -4
    endloop
  endfacet
  facet normal 0 0 -1
    outer loop
      vertex -53.7679 77.5607 -4
      vertex -50.866 77.5 -4
      vertex -51.732 76 -4
    endloop
  endfacet
  facet normal -0 0 -1
    outer loop
      vertex -50.866 74.5 -4
      vertex -53.7679 74.4393 -4
      vertex -51.732 76 -4
    endloop
  endfacet
  facet normal 0 0 -1
    outer loop
      vertex -50.866 77.5 -4
      vertex -52.8838 78.8838 -4
      vertex -51.5607 79.7679 -4
    endloop
  endfacet
  facet normal 0 0 -1
    outer loop
      vertex -54.0784 76 -4
      vertex -51.732 76 -4
      vertex -53.7679 74.4393 -4
    endloop
  endfacet
  facet normal 0 0 -1
    outer loop
      vertex -50.866 77.5 -4
      vertex -53.7679 77.5607 -4
      vertex -52.8838 78.8838 -4
    endloop
  endfacet
  facet normal 0 0 -1
    outer loop
      vertex -51.732 76 -4
      vertex -54.0784 76 -4
      vertex -53.7679 77.5607 -4
    endloop
  endfacet
  facet normal 0.866026 0.5 0
    outer loop
      vertex -0.866025 74.5 0
      vertex -1.73205 76 -4
      vertex -1.73205 76 0
    endloop
  endfacet
  facet normal 0.866026 0.5 0
    outer loop
      vertex -1.73205 76 -4
      vertex -0.866025 74.5 0
      vertex -0.866025 74.5 -4
    endloop
  endfacet
  facet normal 0 1 -0
    outer loop
      vertex 0.866025 74.5 -4
      vertex -0.866025 74.5 0
      vertex 0.866025 74.5 0
    endloop
  endfacet
  facet normal 0 1 0
    outer loop
      vertex -0.866025 74.5 0
      vertex 0.866025 74.5 -4
      vertex -0.866025 74.5 -4
    endloop
  endfacet
  facet normal -0.866026 0.5 0
    outer loop
      vertex 0.866025 74.5 -4
      vertex 1.73205 76 0
      vertex 1.73205 76 -4
    endloop
  endfacet
  facet normal -0.866026 0.5 0
    outer loop
      vertex 1.73205 76 0
      vertex 0.866025 74.5 -4
      vertex 0.866025 74.5 0
    endloop
  endfacet
  facet normal 0.866026 -0.5 0
    outer loop
      vertex -1.73205 76 0
      vertex -0.866025 77.5 -4
      vertex -0.866025 77.5 0
    endloop
  endfacet
  facet normal 0.866026 -0.5 0
    outer loop
      vertex -0.866025 77.5 -4
      vertex -1.73205 76 0
      vertex -1.73205 76 -4
    endloop
  endfacet
  facet normal 0 -1 0
    outer loop
      vertex -0.866025 77.5 -4
      vertex 0.866025 77.5 0
      vertex -0.866025 77.5 0
    endloop
  endfacet
  facet normal 0 -1 -0
    outer loop
      vertex 0.866025 77.5 0
      vertex -0.866025 77.5 -4
      vertex 0.866025 77.5 -4
    endloop
  endfacet
  facet normal -0.866026 -0.5 0
    outer loop
      vertex 1.73205 76 -4
      vertex 0.866025 77.5 0
      vertex 0.866025 77.5 -4
    endloop
  endfacet
  facet normal -0.866026 -0.5 0
    outer loop
      vertex 0.866025 77.5 0
      vertex 1.73205 76 -4
      vertex 1.73205 76 0
    endloop
  endfacet
  facet normal 0.980786 0.195089 0
    outer loop
      vertex -3.76792 74.4393 -4
      vertex -4.07836 76 -22.3333
      vertex -4.07836 76 -4
    endloop
  endfacet
  facet normal 0.980786 0.195089 -0
    outer loop
      vertex -3.76792 74.4393 -25
      vertex -4.07836 76 -22.3333
      vertex -3.76792 74.4393 -4
    endloop
  endfacet
  facet normal 0.980785 0.19509 -7.62867e-07
    outer loop
      vertex -4.07836 76 -22.3333
      vertex -3.76792 74.4393 -25
      vertex -3.87945 75 -25
    endloop
  endfacet
  facet normal 0.831466 0.555576 0
    outer loop
      vertex -2.88384 73.1162 -4
      vertex -3.76792 74.4393 -25
      vertex -3.76792 74.4393 -4
    endloop
  endfacet
  facet normal 0.831466 0.555576 0
    outer loop
      vertex -3.76792 74.4393 -25
      vertex -2.88384 73.1162 -4
      vertex -2.88384 73.1162 -25
    endloop
  endfacet
  facet normal -0.195123 -0.980779 0
    outer loop
      vertex 0 80.0784 -11.4577
      vertex 1.56072 79.7679 -4
      vertex 0 80.0784 -4
    endloop
  endfacet
  facet normal -0.195123 -0.980779 -0
    outer loop
      vertex 1.56072 79.7679 -4
      vertex 0 80.0784 -11.4577
      vertex 1.56072 79.7679 -12.2856
    endloop
  endfacet
  facet normal -0.831466 -0.555576 -0
    outer loop
      vertex 3.76792 77.5607 -4
      vertex 2.88384 78.8838 -14.6431
      vertex 3.76792 77.5607 -18.1714
    endloop
  endfacet
  facet normal -0.831466 -0.555576 0
    outer loop
      vertex 2.88384 78.8838 -14.6431
      vertex 3.76792 77.5607 -4
      vertex 2.88384 78.8838 -4
    endloop
  endfacet
  facet normal 0.555579 0.831464 -0
    outer loop
      vertex -1.56072 72.2321 -25
      vertex -2.88384 73.1162 -4
      vertex -1.56072 72.2321 -4
    endloop
  endfacet
  facet normal 0.555579 0.831464 0
    outer loop
      vertex -2.88384 73.1162 -4
      vertex -1.56072 72.2321 -25
      vertex -2.88384 73.1162 -25
    endloop
  endfacet
  facet normal -0.831466 0.555576 0
    outer loop
      vertex 2.88384 73.1162 -25
      vertex 3.76792 74.4393 -4
      vertex 3.76792 74.4393 -25
    endloop
  endfacet
  facet normal -0.831466 0.555576 0
    outer loop
      vertex 3.76792 74.4393 -4
      vertex 2.88384 73.1162 -25
      vertex 2.88384 73.1162 -4
    endloop
  endfacet
  facet normal -0.195123 0.980779 0
    outer loop
      vertex 1.56072 72.2321 -25
      vertex 0 71.9216 -4
      vertex 1.56072 72.2321 -4
    endloop
  endfacet
  facet normal -0.195123 0.980779 0
    outer loop
      vertex 0 71.9216 -4
      vertex 1.56072 72.2321 -25
      vertex 0 71.9216 -25
    endloop
  endfacet
  facet normal 0.980786 -0.195089 0
    outer loop
      vertex -4.07836 76 -4
      vertex -3.76792 77.5607 -18.1714
      vertex -3.76792 77.5607 -4
    endloop
  endfacet
  facet normal 0.980786 -0.195089 0
    outer loop
      vertex -3.76792 77.5607 -18.1714
      vertex -4.07836 76 -4
      vertex -4.07836 76 -22.3333
    endloop
  endfacet
  facet normal 0.555579 -0.831464 0
    outer loop
      vertex -2.88384 78.8838 -4
      vertex -1.56072 79.7679 -12.2856
      vertex -1.56072 79.7679 -4
    endloop
  endfacet
  facet normal 0.555579 -0.831464 0
    outer loop
      vertex -1.56072 79.7679 -12.2856
      vertex -2.88384 78.8838 -4
      vertex -2.88384 78.8838 -14.6431
    endloop
  endfacet
  facet normal -0.555579 -0.831464 0
    outer loop
      vertex 1.56072 79.7679 -12.2856
      vertex 2.88384 78.8838 -4
      vertex 1.56072 79.7679 -4
    endloop
  endfacet
  facet normal -0.555579 -0.831464 -0
    outer loop
      vertex 2.88384 78.8838 -4
      vertex 1.56072 79.7679 -12.2856
      vertex 2.88384 78.8838 -14.6431
    endloop
  endfacet
  facet normal -0.980786 -0.195089 -0
    outer loop
      vertex 4.07836 76 -4
      vertex 3.76792 77.5607 -18.1714
      vertex 4.07836 76 -22.3333
    endloop
  endfacet
  facet normal -0.980786 -0.195089 0
    outer loop
      vertex 3.76792 77.5607 -18.1714
      vertex 4.07836 76 -4
      vertex 3.76792 77.5607 -4
    endloop
  endfacet
  facet normal 0.195123 0.980779 -0
    outer loop
      vertex 0 71.9216 -25
      vertex -1.56072 72.2321 -4
      vertex 0 71.9216 -4
    endloop
  endfacet
  facet normal 0.195123 0.980779 0
    outer loop
      vertex -1.56072 72.2321 -4
      vertex 0 71.9216 -25
      vertex -1.56072 72.2321 -25
    endloop
  endfacet
  facet normal -0.980785 0.19509 -7.62867e-07
    outer loop
      vertex 3.76792 74.4393 -25
      vertex 4.07836 76 -22.3333
      vertex 3.87945 75 -25
    endloop
  endfacet
  facet normal -0.980786 0.195089 0
    outer loop
      vertex 4.07836 76 -22.3333
      vertex 3.76792 74.4393 -25
      vertex 3.76792 74.4393 -4
    endloop
  endfacet
  facet normal -0.980786 0.195089 0
    outer loop
      vertex 4.07836 76 -22.3333
      vertex 3.76792 74.4393 -4
      vertex 4.07836 76 -4
    endloop
  endfacet
  facet normal -0.555579 0.831464 0
    outer loop
      vertex 2.88384 73.1162 -25
      vertex 1.56072 72.2321 -4
      vertex 2.88384 73.1162 -4
    endloop
  endfacet
  facet normal -0.555579 0.831464 0
    outer loop
      vertex 1.56072 72.2321 -4
      vertex 2.88384 73.1162 -25
      vertex 1.56072 72.2321 -25
    endloop
  endfacet
  facet normal 0.831466 -0.555576 0
    outer loop
      vertex -3.76792 77.5607 -4
      vertex -2.88384 78.8838 -14.6431
      vertex -2.88384 78.8838 -4
    endloop
  endfacet
  facet normal 0.831466 -0.555576 0
    outer loop
      vertex -2.88384 78.8838 -14.6431
      vertex -3.76792 77.5607 -4
      vertex -3.76792 77.5607 -18.1714
    endloop
  endfacet
  facet normal 0 0 -1
    outer loop
      vertex 1.73205 76 -4
      vertex 4.07836 76 -4
      vertex 3.76792 74.4393 -4
    endloop
  endfacet
  facet normal 0 0 -1
    outer loop
      vertex 0.866025 74.5 -4
      vertex 3.76792 74.4393 -4
      vertex 2.88384 73.1162 -4
    endloop
  endfacet
  facet normal 0 0 -1
    outer loop
      vertex 4.07836 76 -4
      vertex 1.73205 76 -4
      vertex 3.76792 77.5607 -4
    endloop
  endfacet
  facet normal 0 0 -1
    outer loop
      vertex 0.866025 77.5 -4
      vertex 3.76792 77.5607 -4
      vertex 1.73205 76 -4
    endloop
  endfacet
  facet normal 0 0 -1
    outer loop
      vertex 0.866025 74.5 -4
      vertex 2.88384 73.1162 -4
      vertex 1.56072 72.2321 -4
    endloop
  endfacet
  facet normal 0 0 -1
    outer loop
      vertex 3.76792 74.4393 -4
      vertex 0.866025 74.5 -4
      vertex 1.73205 76 -4
    endloop
  endfacet
  facet normal 0 0 -1
    outer loop
      vertex 0 71.9216 -4
      vertex 0.866025 74.5 -4
      vertex 1.56072 72.2321 -4
    endloop
  endfacet
  facet normal 0 0 -1
    outer loop
      vertex 0 71.9216 -4
      vertex -0.866025 74.5 -4
      vertex 0.866025 74.5 -4
    endloop
  endfacet
  facet normal 0 0 -1
    outer loop
      vertex -1.56072 72.2321 -4
      vertex -0.866025 74.5 -4
      vertex 0 71.9216 -4
    endloop
  endfacet
  facet normal 0 0 -1
    outer loop
      vertex -2.88384 73.1162 -4
      vertex -0.866025 74.5 -4
      vertex -1.56072 72.2321 -4
    endloop
  endfacet
  facet normal 0 0 -1
    outer loop
      vertex -3.76792 74.4393 -4
      vertex -0.866025 74.5 -4
      vertex -2.88384 73.1162 -4
    endloop
  endfacet
  facet normal -0 0 -1
    outer loop
      vertex 3.76792 77.5607 -4
      vertex 0.866025 77.5 -4
      vertex 2.88384 78.8838 -4
    endloop
  endfacet
  facet normal -0 0 -1
    outer loop
      vertex 2.88384 78.8838 -4
      vertex 0.866025 77.5 -4
      vertex 1.56072 79.7679 -4
    endloop
  endfacet
  facet normal 0 0 -1
    outer loop
      vertex 0.866025 77.5 -4
      vertex 0 80.0784 -4
      vertex 1.56072 79.7679 -4
    endloop
  endfacet
  facet normal 0 0 -1
    outer loop
      vertex -0.866025 77.5 -4
      vertex 0 80.0784 -4
      vertex 0.866025 77.5 -4
    endloop
  endfacet
  facet normal 0 0 -1
    outer loop
      vertex -0.866025 77.5 -4
      vertex -1.56072 79.7679 -4
      vertex 0 80.0784 -4
    endloop
  endfacet
  facet normal 0 0 -1
    outer loop
      vertex -3.76792 77.5607 -4
      vertex -0.866025 77.5 -4
      vertex -1.73205 76 -4
    endloop
  endfacet
  facet normal -0 0 -1
    outer loop
      vertex -0.866025 74.5 -4
      vertex -3.76792 74.4393 -4
      vertex -1.73205 76 -4
    endloop
  endfacet
  facet normal 0 0 -1
    outer loop
      vertex -0.866025 77.5 -4
      vertex -2.88384 78.8838 -4
      vertex -1.56072 79.7679 -4
    endloop
  endfacet
  facet normal 0 0 -1
    outer loop
      vertex -4.07836 76 -4
      vertex -1.73205 76 -4
      vertex -3.76792 74.4393 -4
    endloop
  endfacet
  facet normal 0 0 -1
    outer loop
      vertex -0.866025 77.5 -4
      vertex -3.76792 77.5607 -4
      vertex -2.88384 78.8838 -4
    endloop
  endfacet
  facet normal 0 0 -1
    outer loop
      vertex -1.73205 76 -4
      vertex -4.07836 76 -4
      vertex -3.76792 77.5607 -4
    endloop
  endfacet
  facet normal 0.195123 -0.980779 0
    outer loop
      vertex -1.56072 79.7679 -4
      vertex 0 80.0784 -11.4577
      vertex 0 80.0784 -4
    endloop
  endfacet
  facet normal 0.195123 -0.980779 0
    outer loop
      vertex 0 80.0784 -11.4577
      vertex -1.56072 79.7679 -4
      vertex -1.56072 79.7679 -12.2856
    endloop
  endfacet
  facet normal 0.866032 0.499989 0
    outer loop
      vertex 49.134 74.5 0
      vertex 48.268 76 -4
      vertex 48.268 76 0
    endloop
  endfacet
  facet normal 0.866032 0.499989 0
    outer loop
      vertex 48.268 76 -4
      vertex 49.134 74.5 0
      vertex 49.134 74.5 -4
    endloop
  endfacet
  facet normal 0 1 -0
    outer loop
      vertex 50.866 74.5 -4
      vertex 49.134 74.5 0
      vertex 50.866 74.5 0
    endloop
  endfacet
  facet normal 0 1 0
    outer loop
      vertex 49.134 74.5 0
      vertex 50.866 74.5 -4
      vertex 49.134 74.5 -4
    endloop
  endfacet
  facet normal -0.866032 0.499989 0
    outer loop
      vertex 50.866 74.5 -4
      vertex 51.732 76 0
      vertex 51.732 76 -4
    endloop
  endfacet
  facet normal -0.866032 0.499989 0
    outer loop
      vertex 51.732 76 0
      vertex 50.866 74.5 -4
      vertex 50.866 74.5 0
    endloop
  endfacet
  facet normal 0.866032 -0.499989 0
    outer loop
      vertex 48.268 76 0
      vertex 49.134 77.5 -4
      vertex 49.134 77.5 0
    endloop
  endfacet
  facet normal 0.866032 -0.499989 0
    outer loop
      vertex 49.134 77.5 -4
      vertex 48.268 76 0
      vertex 48.268 76 -4
    endloop
  endfacet
  facet normal 0 -1 0
    outer loop
      vertex 49.134 77.5 -4
      vertex 50.866 77.5 0
      vertex 49.134 77.5 0
    endloop
  endfacet
  facet normal 0 -1 -0
    outer loop
      vertex 50.866 77.5 0
      vertex 49.134 77.5 -4
      vertex 50.866 77.5 -4
    endloop
  endfacet
  facet normal -0.866032 -0.499989 0
    outer loop
      vertex 51.732 76 -4
      vertex 50.866 77.5 0
      vertex 50.866 77.5 -4
    endloop
  endfacet
  facet normal -0.866032 -0.499989 0
    outer loop
      vertex 50.866 77.5 0
      vertex 51.732 76 -4
      vertex 51.732 76 0
    endloop
  endfacet
  facet normal 0.980778 0.195125 0
    outer loop
      vertex 46.2321 74.4393 -4
      vertex 45.9216 76 -22.3333
      vertex 45.9216 76 -4
    endloop
  endfacet
  facet normal 0.980778 0.195125 -0
    outer loop
      vertex 46.2321 74.4393 -25
      vertex 45.9216 76 -22.3333
      vertex 46.2321 74.4393 -4
    endloop
  endfacet
  facet normal 0.980762 0.195208 -5.03559e-05
    outer loop
      vertex 45.9216 76 -22.3333
      vertex 46.2321 74.4393 -25
      vertex 46.1205 75 -25
    endloop
  endfacet
  facet normal 0.83146 0.555585 0
    outer loop
      vertex 47.1162 73.1162 -4
      vertex 46.2321 74.4393 -25
      vertex 46.2321 74.4393 -4
    endloop
  endfacet
  facet normal 0.83146 0.555585 0
    outer loop
      vertex 46.2321 74.4393 -25
      vertex 47.1162 73.1162 -4
      vertex 47.1162 73.1162 -25
    endloop
  endfacet
  facet normal -0.980762 0.195208 -5.03559e-05
    outer loop
      vertex 53.7679 74.4393 -25
      vertex 54.0784 76 -22.3333
      vertex 53.8795 75 -25
    endloop
  endfacet
  facet normal -0.980778 0.195125 0
    outer loop
      vertex 54.0784 76 -22.3333
      vertex 53.7679 74.4393 -25
      vertex 53.7679 74.4393 -4
    endloop
  endfacet
  facet normal -0.980778 0.195125 0
    outer loop
      vertex 54.0784 76 -22.3333
      vertex 53.7679 74.4393 -4
      vertex 54.0784 76 -4
    endloop
  endfacet
  facet normal -0.195125 -0.980778 0
    outer loop
      vertex 50 80.0784 -11.4577
      vertex 51.5607 79.7679 -4
      vertex 50 80.0784 -4
    endloop
  endfacet
  facet normal -0.195125 -0.980778 -0
    outer loop
      vertex 51.5607 79.7679 -4
      vertex 50 80.0784 -11.4577
      vertex 51.5607 79.7679 -12.2856
    endloop
  endfacet
  facet normal 0.83146 -0.555585 0
    outer loop
      vertex 46.2321 77.5607 -4
      vertex 47.1162 78.8838 -14.6431
      vertex 47.1162 78.8838 -4
    endloop
  endfacet
  facet normal 0.83146 -0.555585 0
    outer loop
      vertex 47.1162 78.8838 -14.6431
      vertex 46.2321 77.5607 -4
      vertex 46.2321 77.5607 -18.1714
    endloop
  endfacet
  facet normal 0.555585 -0.83146 0
    outer loop
      vertex 47.1162 78.8838 -4
      vertex 48.4393 79.7679 -12.2856
      vertex 48.4393 79.7679 -4
    endloop
  endfacet
  facet normal 0.555585 -0.83146 0
    outer loop
      vertex 48.4393 79.7679 -12.2856
      vertex 47.1162 78.8838 -4
      vertex 47.1162 78.8838 -14.6431
    endloop
  endfacet
  facet normal 0.195125 0.980778 -0
    outer loop
      vertex 50 71.9216 -25
      vertex 48.4393 72.2321 -4
      vertex 50 71.9216 -4
    endloop
  endfacet
  facet normal 0.195125 0.980778 0
    outer loop
      vertex 48.4393 72.2321 -4
      vertex 50 71.9216 -25
      vertex 48.4393 72.2321 -25
    endloop
  endfacet
  facet normal 0.555585 0.83146 -0
    outer loop
      vertex 48.4393 72.2321 -25
      vertex 47.1162 73.1162 -4
      vertex 48.4393 72.2321 -4
    endloop
  endfacet
  facet normal 0.555585 0.83146 0
    outer loop
      vertex 47.1162 73.1162 -4
      vertex 48.4393 72.2321 -25
      vertex 47.1162 73.1162 -25
    endloop
  endfacet
  facet normal -0.195125 0.980778 0
    outer loop
      vertex 51.5607 72.2321 -25
      vertex 50 71.9216 -4
      vertex 51.5607 72.2321 -4
    endloop
  endfacet
  facet normal -0.195125 0.980778 0
    outer loop
      vertex 50 71.9216 -4
      vertex 51.5607 72.2321 -25
      vertex 50 71.9216 -25
    endloop
  endfacet
  facet normal -0.83146 0.555585 0
    outer loop
      vertex 52.8838 73.1162 -25
      vertex 53.7679 74.4393 -4
      vertex 53.7679 74.4393 -25
    endloop
  endfacet
  facet normal -0.83146 0.555585 0
    outer loop
      vertex 53.7679 74.4393 -4
      vertex 52.8838 73.1162 -25
      vertex 52.8838 73.1162 -4
    endloop
  endfacet
  facet normal -0.555585 0.83146 0
    outer loop
      vertex 52.8838 73.1162 -25
      vertex 51.5607 72.2321 -4
      vertex 52.8838 73.1162 -4
    endloop
  endfacet
  facet normal -0.555585 0.83146 0
    outer loop
      vertex 51.5607 72.2321 -4
      vertex 52.8838 73.1162 -25
      vertex 51.5607 72.2321 -25
    endloop
  endfacet
  facet normal 0.980778 -0.195125 0
    outer loop
      vertex 45.9216 76 -4
      vertex 46.2321 77.5607 -18.1714
      vertex 46.2321 77.5607 -4
    endloop
  endfacet
  facet normal 0.980778 -0.195125 0
    outer loop
      vertex 46.2321 77.5607 -18.1714
      vertex 45.9216 76 -4
      vertex 45.9216 76 -22.3333
    endloop
  endfacet
  facet normal -0.980778 -0.195125 -0
    outer loop
      vertex 54.0784 76 -4
      vertex 53.7679 77.5607 -18.1714
      vertex 54.0784 76 -22.3333
    endloop
  endfacet
  facet normal -0.980778 -0.195125 0
    outer loop
      vertex 53.7679 77.5607 -18.1714
      vertex 54.0784 76 -4
      vertex 53.7679 77.5607 -4
    endloop
  endfacet
  facet normal -0.83146 -0.555585 -0
    outer loop
      vertex 53.7679 77.5607 -4
      vertex 52.8838 78.8838 -14.6431
      vertex 53.7679 77.5607 -18.1714
    endloop
  endfacet
  facet normal -0.83146 -0.555585 0
    outer loop
      vertex 52.8838 78.8838 -14.6431
      vertex 53.7679 77.5607 -4
      vertex 52.8838 78.8838 -4
    endloop
  endfacet
  facet normal 0.195125 -0.980778 0
    outer loop
      vertex 48.4393 79.7679 -4
      vertex 50 80.0784 -11.4577
      vertex 50 80.0784 -4
    endloop
  endfacet
  facet normal 0.195125 -0.980778 0
    outer loop
      vertex 50 80.0784 -11.4577
      vertex 48.4393 79.7679 -4
      vertex 48.4393 79.7679 -12.2856
    endloop
  endfacet
  facet normal -0.555585 -0.83146 0
    outer loop
      vertex 51.5607 79.7679 -12.2856
      vertex 52.8838 78.8838 -4
      vertex 51.5607 79.7679 -4
    endloop
  endfacet
  facet normal -0.555585 -0.83146 -0
    outer loop
      vertex 52.8838 78.8838 -4
      vertex 51.5607 79.7679 -12.2856
      vertex 52.8838 78.8838 -14.6431
    endloop
  endfacet
  facet normal 0 0 -1
    outer loop
      vertex 51.732 76 -4
      vertex 54.0784 76 -4
      vertex 53.7679 74.4393 -4
    endloop
  endfacet
  facet normal 0 0 -1
    outer loop
      vertex 50.866 74.5 -4
      vertex 53.7679 74.4393 -4
      vertex 52.8838 73.1162 -4
    endloop
  endfacet
  facet normal 0 0 -1
    outer loop
      vertex 54.0784 76 -4
      vertex 51.732 76 -4
      vertex 53.7679 77.5607 -4
    endloop
  endfacet
  facet normal 0 0 -1
    outer loop
      vertex 50.866 77.5 -4
      vertex 53.7679 77.5607 -4
      vertex 51.732 76 -4
    endloop
  endfacet
  facet normal 0 0 -1
    outer loop
      vertex 50.866 74.5 -4
      vertex 52.8838 73.1162 -4
      vertex 51.5607 72.2321 -4
    endloop
  endfacet
  facet normal 0 0 -1
    outer loop
      vertex 53.7679 74.4393 -4
      vertex 50.866 74.5 -4
      vertex 51.732 76 -4
    endloop
  endfacet
  facet normal 0 0 -1
    outer loop
      vertex 50 71.9216 -4
      vertex 50.866 74.5 -4
      vertex 51.5607 72.2321 -4
    endloop
  endfacet
  facet normal 0 0 -1
    outer loop
      vertex 50 71.9216 -4
      vertex 49.134 74.5 -4
      vertex 50.866 74.5 -4
    endloop
  endfacet
  facet normal 0 0 -1
    outer loop
      vertex 48.4393 72.2321 -4
      vertex 49.134 74.5 -4
      vertex 50 71.9216 -4
    endloop
  endfacet
  facet normal 0 0 -1
    outer loop
      vertex 47.1162 73.1162 -4
      vertex 49.134 74.5 -4
      vertex 48.4393 72.2321 -4
    endloop
  endfacet
  facet normal 0 0 -1
    outer loop
      vertex 46.2321 74.4393 -4
      vertex 49.134 74.5 -4
      vertex 47.1162 73.1162 -4
    endloop
  endfacet
  facet normal -0 0 -1
    outer loop
      vertex 53.7679 77.5607 -4
      vertex 50.866 77.5 -4
      vertex 52.8838 78.8838 -4
    endloop
  endfacet
  facet normal -0 0 -1
    outer loop
      vertex 52.8838 78.8838 -4
      vertex 50.866 77.5 -4
      vertex 51.5607 79.7679 -4
    endloop
  endfacet
  facet normal 0 0 -1
    outer loop
      vertex 50.866 77.5 -4
      vertex 50 80.0784 -4
      vertex 51.5607 79.7679 -4
    endloop
  endfacet
  facet normal 0 0 -1
    outer loop
      vertex 49.134 77.5 -4
      vertex 50 80.0784 -4
      vertex 50.866 77.5 -4
    endloop
  endfacet
  facet normal 0 0 -1
    outer loop
      vertex 49.134 77.5 -4
      vertex 48.4393 79.7679 -4
      vertex 50 80.0784 -4
    endloop
  endfacet
  facet normal 0 0 -1
    outer loop
      vertex 46.2321 77.5607 -4
      vertex 49.134 77.5 -4
      vertex 48.268 76 -4
    endloop
  endfacet
  facet normal -0 0 -1
    outer loop
      vertex 49.134 74.5 -4
      vertex 46.2321 74.4393 -4
      vertex 48.268 76 -4
    endloop
  endfacet
  facet normal 0 0 -1
    outer loop
      vertex 49.134 77.5 -4
      vertex 47.1162 78.8838 -4
      vertex 48.4393 79.7679 -4
    endloop
  endfacet
  facet normal 0 0 -1
    outer loop
      vertex 45.9216 76 -4
      vertex 48.268 76 -4
      vertex 46.2321 74.4393 -4
    endloop
  endfacet
  facet normal 0 0 -1
    outer loop
      vertex 49.134 77.5 -4
      vertex 46.2321 77.5607 -4
      vertex 47.1162 78.8838 -4
    endloop
  endfacet
  facet normal 0 0 -1
    outer loop
      vertex 48.268 76 -4
      vertex 45.9216 76 -4
      vertex 46.2321 77.5607 -4
    endloop
  endfacet
  facet normal 0 0 -1
    outer loop
      vertex 53.7679 -74.4393 -25
      vertex 100 -75 -25
      vertex 53.8795 -75 -25
    endloop
  endfacet
  facet normal 0 0 -1
    outer loop
      vertex 52.8838 -73.1162 -25
      vertex 100 -75 -25
      vertex 53.7679 -74.4393 -25
    endloop
  endfacet
  facet normal 0 0 -1
    outer loop
      vertex 51.5607 -72.2321 -25
      vertex 100 -75 -25
      vertex 52.8838 -73.1162 -25
    endloop
  endfacet
  facet normal -0 0 -1
    outer loop
      vertex 100 75 -25
      vertex 53.7679 74.4393 -25
      vertex 53.8795 75 -25
    endloop
  endfacet
  facet normal 0 0 -1
    outer loop
      vertex 100 -75 -25
      vertex 51.5607 -72.2321 -25
      vertex 100 75 -25
    endloop
  endfacet
  facet normal 0 0 -1
    outer loop
      vertex 100 75 -25
      vertex 52.8838 73.1162 -25
      vertex 53.7679 74.4393 -25
    endloop
  endfacet
  facet normal 0 0 -1
    outer loop
      vertex 51.5607 72.2321 -25
      vertex 100 75 -25
      vertex 51.5607 -72.2321 -25
    endloop
  endfacet
  facet normal 0 0 -1
    outer loop
      vertex 100 75 -25
      vertex 51.5607 72.2321 -25
      vertex 52.8838 73.1162 -25
    endloop
  endfacet
  facet normal 0 0 -1
    outer loop
      vertex 50 -71.9216 -25
      vertex 51.5607 72.2321 -25
      vertex 51.5607 -72.2321 -25
    endloop
  endfacet
  facet normal 0 0 -1
    outer loop
      vertex 50 -71.9216 -25
      vertex 50 71.9216 -25
      vertex 51.5607 72.2321 -25
    endloop
  endfacet
  facet normal 0 0 -1
    outer loop
      vertex 48.4393 -72.2321 -25
      vertex 50 71.9216 -25
      vertex 50 -71.9216 -25
    endloop
  endfacet
  facet normal 0 0 -1
    outer loop
      vertex 48.4393 -72.2321 -25
      vertex 48.4393 72.2321 -25
      vertex 50 71.9216 -25
    endloop
  endfacet
  facet normal 0 0 -1
    outer loop
      vertex 1.56072 -72.2321 -25
      vertex 48.4393 -72.2321 -25
      vertex 47.1162 -73.1162 -25
    endloop
  endfacet
  facet normal 0 0 -1
    outer loop
      vertex 48.4393 -72.2321 -25
      vertex 1.56072 -72.2321 -25
      vertex 48.4393 72.2321 -25
    endloop
  endfacet
  facet normal 0 0 -1
    outer loop
      vertex 2.88384 -73.1162 -25
      vertex 47.1162 -73.1162 -25
      vertex 46.2321 -74.4393 -25
    endloop
  endfacet
  facet normal 0 0 -1
    outer loop
      vertex 1.56072 72.2321 -25
      vertex 48.4393 72.2321 -25
      vertex 1.56072 -72.2321 -25
    endloop
  endfacet
  facet normal 0 0 -1
    outer loop
      vertex 3.76792 -74.4393 -25
      vertex 46.2321 -74.4393 -25
      vertex 46.1205 -75 -25
    endloop
  endfacet
  facet normal 0 0 -1
    outer loop
      vertex 48.4393 72.2321 -25
      vertex 1.56072 72.2321 -25
      vertex 47.1162 73.1162 -25
    endloop
  endfacet
  facet normal 0 0 -1
    outer loop
      vertex 3.76792 -74.4393 -25
      vertex 46.1205 -75 -25
      vertex 3.87945 -75 -25
    endloop
  endfacet
  facet normal 0 0 -1
    outer loop
      vertex 46.2321 -74.4393 -25
      vertex 3.76792 -74.4393 -25
      vertex 2.88384 -73.1162 -25
    endloop
  endfacet
  facet normal 0 0 -1
    outer loop
      vertex 47.1162 -73.1162 -25
      vertex 2.88384 -73.1162 -25
      vertex 1.56072 -72.2321 -25
    endloop
  endfacet
  facet normal -0 0 -1
    outer loop
      vertex 46.1205 75 -25
      vertex 3.76792 74.4393 -25
      vertex 3.87945 75 -25
    endloop
  endfacet
  facet normal 0 -0 -1
    outer loop
      vertex 2.88384 73.1162 -25
      vertex 47.1162 73.1162 -25
      vertex 1.56072 72.2321 -25
    endloop
  endfacet
  facet normal 0 0 -1
    outer loop
      vertex 46.2321 74.4393 -25
      vertex 3.76792 74.4393 -25
      vertex 46.1205 75 -25
    endloop
  endfacet
  facet normal 0 0 -1
    outer loop
      vertex 47.1162 73.1162 -25
      vertex 2.88384 73.1162 -25
      vertex 46.2321 74.4393 -25
    endloop
  endfacet
  facet normal 0 -0 -1
    outer loop
      vertex 3.76792 74.4393 -25
      vertex 46.2321 74.4393 -25
      vertex 2.88384 73.1162 -25
    endloop
  endfacet
  facet normal 0 0 -1
    outer loop
      vertex 0 -71.9216 -25
      vertex 1.56072 72.2321 -25
      vertex 1.56072 -72.2321 -25
    endloop
  endfacet
  facet normal 0 0 -1
    outer loop
      vertex 0 -71.9216 -25
      vertex 0 71.9216 -25
      vertex 1.56072 72.2321 -25
    endloop
  endfacet
  facet normal 0 0 -1
    outer loop
      vertex -1.56072 -72.2321 -25
      vertex 0 71.9216 -25
      vertex 0 -71.9216 -25
    endloop
  endfacet
  facet normal 0 0 -1
    outer loop
      vertex -1.56072 -72.2321 -25
      vertex -1.56072 72.2321 -25
      vertex 0 71.9216 -25
    endloop
  endfacet
  facet normal 0 0 -1
    outer loop
      vertex -48.4393 -72.2321 -25
      vertex -1.56072 -72.2321 -25
      vertex -2.88384 -73.1162 -25
    endloop
  endfacet
  facet normal 0 0 -1
    outer loop
      vertex -1.56072 -72.2321 -25
      vertex -48.4393 -72.2321 -25
      vertex -1.56072 72.2321 -25
    endloop
  endfacet
  facet normal 0 0 -1
    outer loop
      vertex -47.1162 -73.1162 -25
      vertex -2.88384 -73.1162 -25
      vertex -3.76792 -74.4393 -25
    endloop
  endfacet
  facet normal 0 0 -1
    outer loop
      vertex -48.4393 72.2321 -25
      vertex -1.56072 72.2321 -25
      vertex -48.4393 -72.2321 -25
    endloop
  endfacet
  facet normal 0 0 -1
    outer loop
      vertex -46.2321 -74.4393 -25
      vertex -3.76792 -74.4393 -25
      vertex -3.87945 -75 -25
    endloop
  endfacet
  facet normal 0 0 -1
    outer loop
      vertex -1.56072 72.2321 -25
      vertex -48.4393 72.2321 -25
      vertex -2.88384 73.1162 -25
    endloop
  endfacet
  facet normal 0 0 -1
    outer loop
      vertex -46.2321 -74.4393 -25
      vertex -3.87945 -75 -25
      vertex -46.1205 -75 -25
    endloop
  endfacet
  facet normal 0 0 -1
    outer loop
      vertex -3.76792 -74.4393 -25
      vertex -46.2321 -74.4393 -25
      vertex -47.1162 -73.1162 -25
    endloop
  endfacet
  facet normal 0 0 -1
    outer loop
      vertex -2.88384 -73.1162 -25
      vertex -47.1162 -73.1162 -25
      vertex -48.4393 -72.2321 -25
    endloop
  endfacet
  facet normal -0 0 -1
    outer loop
      vertex -3.87945 75 -25
      vertex -46.2321 74.4393 -25
      vertex -46.1205 75 -25
    endloop
  endfacet
  facet normal 0 -0 -1
    outer loop
      vertex -47.1162 73.1162 -25
      vertex -2.88384 73.1162 -25
      vertex -48.4393 72.2321 -25
    endloop
  endfacet
  facet normal 0 0 -1
    outer loop
      vertex -3.76792 74.4393 -25
      vertex -46.2321 74.4393 -25
      vertex -3.87945 75 -25
    endloop
  endfacet
  facet normal 0 0 -1
    outer loop
      vertex -2.88384 73.1162 -25
      vertex -47.1162 73.1162 -25
      vertex -3.76792 74.4393 -25
    endloop
  endfacet
  facet normal 0 -0 -1
    outer loop
      vertex -46.2321 74.4393 -25
      vertex -3.76792 74.4393 -25
      vertex -47.1162 73.1162 -25
    endloop
  endfacet
  facet normal 0 0 -1
    outer loop
      vertex -50 -71.9216 -25
      vertex -48.4393 72.2321 -25
      vertex -48.4393 -72.2321 -25
    endloop
  endfacet
  facet normal 0 0 -1
    outer loop
      vertex -50 -71.9216 -25
      vertex -50 71.9216 -25
      vertex -48.4393 72.2321 -25
    endloop
  endfacet
  facet normal 0 0 -1
    outer loop
      vertex -51.5607 -72.2321 -25
      vertex -50 71.9216 -25
      vertex -50 -71.9216 -25
    endloop
  endfacet
  facet normal 0 0 -1
    outer loop
      vertex -51.5607 -72.2321 -25
      vertex -51.5607 72.2321 -25
      vertex -50 71.9216 -25
    endloop
  endfacet
  facet normal 0 0 -1
    outer loop
      vertex -100 -75 -25
      vertex -51.5607 -72.2321 -25
      vertex -52.8838 -73.1162 -25
    endloop
  endfacet
  facet normal -0 0 -1
    outer loop
      vertex -51.5607 -72.2321 -25
      vertex -100 -75 -25
      vertex -51.5607 72.2321 -25
    endloop
  endfacet
  facet normal 0 0 -1
    outer loop
      vertex -100 -75 -25
      vertex -52.8838 -73.1162 -25
      vertex -53.7679 -74.4393 -25
    endloop
  endfacet
  facet normal 0 0 -1
    outer loop
      vertex -100 75 -25
      vertex -51.5607 72.2321 -25
      vertex -100 -75 -25
    endloop
  endfacet
  facet normal 0 0 -1
    outer loop
      vertex -100 -75 -25
      vertex -53.7679 -74.4393 -25
      vertex -53.8795 -75 -25
    endloop
  endfacet
  facet normal 0 0 -1
    outer loop
      vertex -51.5607 72.2321 -25
      vertex -100 75 -25
      vertex -52.8838 73.1162 -25
    endloop
  endfacet
  facet normal 0 0 -1
    outer loop
      vertex -52.8838 73.1162 -25
      vertex -100 75 -25
      vertex -53.7679 74.4393 -25
    endloop
  endfacet
  facet normal 0 0 -1
    outer loop
      vertex -53.7679 74.4393 -25
      vertex -100 75 -25
      vertex -53.8795 75 -25
    endloop
  endfacet
  facet normal 0 0.936315 -0.351161
    outer loop
      vertex -1.56072 79.7679 -12.2856
      vertex -50 80.0784 -11.4577
      vertex 0 80.0784 -11.4577
    endloop
  endfacet
  facet normal 0 0.936315 -0.351161
    outer loop
      vertex -1.56072 79.7679 -12.2856
      vertex -48.4393 79.7679 -12.2856
      vertex -50 80.0784 -11.4577
    endloop
  endfacet
  facet normal 0 0.936324 -0.351136
    outer loop
      vertex -2.88384 78.8838 -14.6431
      vertex -48.4393 79.7679 -12.2856
      vertex -1.56072 79.7679 -12.2856
    endloop
  endfacet
  facet normal 0 0.936324 -0.351136
    outer loop
      vertex -2.88384 78.8838 -14.6431
      vertex -47.1162 78.8838 -14.6431
      vertex -48.4393 79.7679 -12.2856
    endloop
  endfacet
  facet normal 0 0.93633 -0.351121
    outer loop
      vertex -3.76792 77.5607 -18.1714
      vertex -47.1162 78.8838 -14.6431
      vertex -2.88384 78.8838 -14.6431
    endloop
  endfacet
  facet normal 0 0.93633 -0.351121
    outer loop
      vertex -3.76792 77.5607 -18.1714
      vertex -46.2321 77.5607 -18.1714
      vertex -47.1162 78.8838 -14.6431
    endloop
  endfacet
  facet normal 0 0.93633 -0.351121
    outer loop
      vertex -4.07836 76 -22.3333
      vertex -46.2321 77.5607 -18.1714
      vertex -3.76792 77.5607 -18.1714
    endloop
  endfacet
  facet normal 0 0.93633 -0.351121
    outer loop
      vertex -4.07836 76 -22.3333
      vertex -45.9216 76 -22.3333
      vertex -46.2321 77.5607 -18.1714
    endloop
  endfacet
  facet normal 0 0.936331 -0.35112
    outer loop
      vertex -3.87945 75 -25
      vertex -45.9216 76 -22.3333
      vertex -4.07836 76 -22.3333
    endloop
  endfacet
  facet normal 0 0.936331 -0.35112
    outer loop
      vertex -45.9216 76 -22.3333
      vertex -3.87945 75 -25
      vertex -46.1205 75 -25
    endloop
  endfacet
  facet normal 0 0.936315 -0.351161
    outer loop
      vertex 48.4393 79.7679 -12.2856
      vertex 0 80.0784 -11.4577
      vertex 50 80.0784 -11.4577
    endloop
  endfacet
  facet normal 0 0.936315 -0.351161
    outer loop
      vertex 48.4393 79.7679 -12.2856
      vertex 1.56072 79.7679 -12.2856
      vertex 0 80.0784 -11.4577
    endloop
  endfacet
  facet normal 0 0.936324 -0.351136
    outer loop
      vertex 47.1162 78.8838 -14.6431
      vertex 1.56072 79.7679 -12.2856
      vertex 48.4393 79.7679 -12.2856
    endloop
  endfacet
  facet normal 0 0.936324 -0.351136
    outer loop
      vertex 47.1162 78.8838 -14.6431
      vertex 2.88384 78.8838 -14.6431
      vertex 1.56072 79.7679 -12.2856
    endloop
  endfacet
  facet normal 0 0.93633 -0.351121
    outer loop
      vertex 46.2321 77.5607 -18.1714
      vertex 2.88384 78.8838 -14.6431
      vertex 47.1162 78.8838 -14.6431
    endloop
  endfacet
  facet normal 0 0.93633 -0.351121
    outer loop
      vertex 46.2321 77.5607 -18.1714
      vertex 3.76792 77.5607 -18.1714
      vertex 2.88384 78.8838 -14.6431
    endloop
  endfacet
  facet normal 0 0.93633 -0.351121
    outer loop
      vertex 45.9216 76 -22.3333
      vertex 3.76792 77.5607 -18.1714
      vertex 46.2321 77.5607 -18.1714
    endloop
  endfacet
  facet normal 0 0.93633 -0.351121
    outer loop
      vertex 45.9216 76 -22.3333
      vertex 4.07836 76 -22.3333
      vertex 3.76792 77.5607 -18.1714
    endloop
  endfacet
  facet normal 0 0.936331 -0.35112
    outer loop
      vertex 46.1205 75 -25
      vertex 4.07836 76 -22.3333
      vertex 45.9216 76 -22.3333
    endloop
  endfacet
  facet normal 0 0.936331 -0.35112
    outer loop
      vertex 4.07836 76 -22.3333
      vertex 46.1205 75 -25
      vertex 3.87945 75 -25
    endloop
  endfacet
  facet normal 0 0.93633 -0.351121
    outer loop
      vertex 0 80.0784 -11.4577
      vertex 112.5 84.375 0
      vertex 50 80.0784 -11.4577
    endloop
  endfacet
  facet normal 6.19557e-06 0.936319 -0.35115
    outer loop
      vertex 112.5 84.375 0
      vertex 51.5607 79.7679 -12.2856
      vertex 50 80.0784 -11.4577
    endloop
  endfacet
  facet normal 2.69745e-06 0.936325 -0.351135
    outer loop
      vertex 112.5 84.375 0
      vertex 52.8838 78.8838 -14.6431
      vertex 51.5607 79.7679 -12.2856
    endloop
  endfacet
  facet normal -6.71433e-07 0.936329 -0.351123
    outer loop
      vertex 100 75 -25
      vertex 52.8838 78.8838 -14.6431
      vertex 112.5 84.375 0
    endloop
  endfacet
  facet normal -1.6988e-08 0.93633 -0.351121
    outer loop
      vertex 52.8838 78.8838 -14.6431
      vertex 100 75 -25
      vertex 53.7679 77.5607 -18.1714
    endloop
  endfacet
  facet normal -9.19634e-08 0.93633 -0.351121
    outer loop
      vertex 53.7679 77.5607 -18.1714
      vertex 100 75 -25
      vertex 54.0784 76 -22.3333
    endloop
  endfacet
  facet normal 0 0.936331 -0.35112
    outer loop
      vertex 54.0784 76 -22.3333
      vertex 100 75 -25
      vertex 53.8795 75 -25
    endloop
  endfacet
  facet normal 0 0.93633 -0.351121
    outer loop
      vertex 112.5 84.375 0
      vertex 0 80.0784 -11.4577
      vertex -112.5 84.375 0
    endloop
  endfacet
  facet normal 0 0.93633 -0.351121
    outer loop
      vertex -50 80.0784 -11.4577
      vertex -112.5 84.375 0
      vertex 0 80.0784 -11.4577
    endloop
  endfacet
  facet normal -6.19557e-06 0.936319 -0.35115
    outer loop
      vertex -51.5607 79.7679 -12.2856
      vertex -112.5 84.375 0
      vertex -50 80.0784 -11.4577
    endloop
  endfacet
  facet normal -2.69745e-06 0.936325 -0.351135
    outer loop
      vertex -52.8838 78.8838 -14.6431
      vertex -112.5 84.375 0
      vertex -51.5607 79.7679 -12.2856
    endloop
  endfacet
  facet normal 1.6988e-08 0.93633 -0.351121
    outer loop
      vertex -100 75 -25
      vertex -52.8838 78.8838 -14.6431
      vertex -53.7679 77.5607 -18.1714
    endloop
  endfacet
  facet normal 9.19634e-08 0.93633 -0.351121
    outer loop
      vertex -100 75 -25
      vertex -53.7679 77.5607 -18.1714
      vertex -54.0784 76 -22.3333
    endloop
  endfacet
  facet normal 0 0.936331 -0.35112
    outer loop
      vertex -100 75 -25
      vertex -54.0784 76 -22.3333
      vertex -53.8795 75 -25
    endloop
  endfacet
  facet normal 6.71433e-07 0.936329 -0.351123
    outer loop
      vertex -52.8838 78.8838 -14.6431
      vertex -100 75 -25
      vertex -112.5 84.375 0
    endloop
  endfacet
  facet normal -0.894427 0 -0.447214
    outer loop
      vertex -100 -75 -25
      vertex -112.5 84.375 0
      vertex -100 75 -25
    endloop
  endfacet
  facet normal -0.894427 -0 -0.447214
    outer loop
      vertex -112.5 84.375 0
      vertex -100 -75 -25
      vertex -112.5 -84.375 0
    endloop
  endfacet
  facet normal 0 0 1
    outer loop
      vertex 95 -70 0
      vertex 50.866 -74.5 0
      vertex 51.732 -76 0
    endloop
  endfacet
  facet normal 0 0 1
    outer loop
      vertex 95 -70 0
      vertex 49.134 -74.5 0
      vertex 50.866 -74.5 0
    endloop
  endfacet
  facet normal 0 0 1
    outer loop
      vertex 49.134 -74.5 0
      vertex 1.73205 -76 0
      vertex 48.268 -76 0
    endloop
  endfacet
  facet normal 0 0 1
    outer loop
      vertex 0.866025 -74.5 0
      vertex 49.134 -74.5 0
      vertex 95 -70 0
    endloop
  endfacet
  facet normal 0 0 1
    outer loop
      vertex 49.134 -74.5 0
      vertex 0.866025 -74.5 0
      vertex 1.73205 -76 0
    endloop
  endfacet
  facet normal 0 0 1
    outer loop
      vertex 95 -70 0
      vertex -0.866025 -74.5 0
      vertex 0.866025 -74.5 0
    endloop
  endfacet
  facet normal 0 0 1
    outer loop
      vertex -0.866025 -74.5 0
      vertex -48.268 -76 0
      vertex -1.73205 -76 0
    endloop
  endfacet
  facet normal -0 0 1
    outer loop
      vertex -95 -70 0
      vertex -0.866025 -74.5 0
      vertex 95 -70 0
    endloop
  endfacet
  facet normal 0 0 1
    outer loop
      vertex -0.866025 -74.5 0
      vertex -49.134 -74.5 0
      vertex -48.268 -76 0
    endloop
  endfacet
  facet normal 0 0 1
    outer loop
      vertex -0.866025 -74.5 0
      vertex -95 -70 0
      vertex -49.134 -74.5 0
    endloop
  endfacet
  facet normal 0 0 1
    outer loop
      vertex -50.866 -74.5 0
      vertex -95 -70 0
      vertex -51.732 -76 0
    endloop
  endfacet
  facet normal 0 0 1
    outer loop
      vertex -49.134 -74.5 0
      vertex -95 -70 0
      vertex -50.866 -74.5 0
    endloop
  endfacet
  facet normal 0 0 1
    outer loop
      vertex 112.5 84.375 0
      vertex 95 70 0
      vertex 112.5 -84.375 0
    endloop
  endfacet
  facet normal -0 0 1
    outer loop
      vertex 50.866 77.5 0
      vertex 95 70 0
      vertex 112.5 84.375 0
    endloop
  endfacet
  facet normal 0 0 1
    outer loop
      vertex 95 70 0
      vertex 50.866 77.5 0
      vertex 51.732 76 0
    endloop
  endfacet
  facet normal 0 0 1
    outer loop
      vertex 112.5 84.375 0
      vertex 49.134 77.5 0
      vertex 50.866 77.5 0
    endloop
  endfacet
  facet normal 0 0 1
    outer loop
      vertex 49.134 77.5 0
      vertex 1.73205 76 0
      vertex 48.268 76 0
    endloop
  endfacet
  facet normal 0 0 1
    outer loop
      vertex 0.866025 77.5 0
      vertex 49.134 77.5 0
      vertex 112.5 84.375 0
    endloop
  endfacet
  facet normal 0 0 1
    outer loop
      vertex 49.134 77.5 0
      vertex 0.866025 77.5 0
      vertex 1.73205 76 0
    endloop
  endfacet
  facet normal 0 0 1
    outer loop
      vertex 112.5 84.375 0
      vertex -0.866025 77.5 0
      vertex 0.866025 77.5 0
    endloop
  endfacet
  facet normal 0 0 1
    outer loop
      vertex -0.866025 77.5 0
      vertex -48.268 76 0
      vertex -1.73205 76 0
    endloop
  endfacet
  facet normal -0 0 1
    outer loop
      vertex -112.5 84.375 0
      vertex -0.866025 77.5 0
      vertex 112.5 84.375 0
    endloop
  endfacet
  facet normal 0 0 1
    outer loop
      vertex -0.866025 77.5 0
      vertex -49.134 77.5 0
      vertex -48.268 76 0
    endloop
  endfacet
  facet normal 0 0 1
    outer loop
      vertex -0.866025 77.5 0
      vertex -112.5 84.375 0
      vertex -49.134 77.5 0
    endloop
  endfacet
  facet normal 0 0 1
    outer loop
      vertex -50.866 77.5 0
      vertex -95 70 0
      vertex -51.732 76 0
    endloop
  endfacet
  facet normal 0 0 1
    outer loop
      vertex -95 70 0
      vertex -112.5 84.375 0
      vertex -95 -70 0
    endloop
  endfacet
  facet normal 0 0 1
    outer loop
      vertex -50.866 77.5 0
      vertex -112.5 84.375 0
      vertex -95 70 0
    endloop
  endfacet
  facet normal 0 0 1
    outer loop
      vertex -49.134 77.5 0
      vertex -112.5 84.375 0
      vertex -50.866 77.5 0
    endloop
  endfacet
  facet normal -0 0 1
    outer loop
      vertex 95 -70 0
      vertex 112.5 -84.375 0
      vertex 95 70 0
    endloop
  endfacet
  facet normal 0 0 1
    outer loop
      vertex 50.866 -77.5 0
      vertex 95 -70 0
      vertex 51.732 -76 0
    endloop
  endfacet
  facet normal 0 0 1
    outer loop
      vertex 95 -70 0
      vertex 50.866 -77.5 0
      vertex 112.5 -84.375 0
    endloop
  endfacet
  facet normal -0 0 1
    outer loop
      vertex 49.134 -77.5 0
      vertex 112.5 -84.375 0
      vertex 50.866 -77.5 0
    endloop
  endfacet
  facet normal -0 0 1
    outer loop
      vertex 1.73205 -76 0
      vertex 49.134 -77.5 0
      vertex 48.268 -76 0
    endloop
  endfacet
  facet normal 0 0 1
    outer loop
      vertex 0.866025 -77.5 0
      vertex 49.134 -77.5 0
      vertex 1.73205 -76 0
    endloop
  endfacet
  facet normal 0 0 1
    outer loop
      vertex 49.134 -77.5 0
      vertex 0.866025 -77.5 0
      vertex 112.5 -84.375 0
    endloop
  endfacet
  facet normal -0 0 1
    outer loop
      vertex -0.866025 -77.5 0
      vertex 112.5 -84.375 0
      vertex 0.866025 -77.5 0
    endloop
  endfacet
  facet normal -0 0 1
    outer loop
      vertex -48.268 -76 0
      vertex -0.866025 -77.5 0
      vertex -1.73205 -76 0
    endloop
  endfacet
  facet normal 0 0 1
    outer loop
      vertex -49.134 -77.5 0
      vertex -0.866025 -77.5 0
      vertex -48.268 -76 0
    endloop
  endfacet
  facet normal 0 0 1
    outer loop
      vertex -112.5 -84.375 0
      vertex -0.866025 -77.5 0
      vertex -49.134 -77.5 0
    endloop
  endfacet
  facet normal 0 0 1
    outer loop
      vertex -112.5 -84.375 0
      vertex -49.134 -77.5 0
      vertex -50.866 -77.5 0
    endloop
  endfacet
  facet normal 0 0 1
    outer loop
      vertex -95 -70 0
      vertex -50.866 -77.5 0
      vertex -51.732 -76 0
    endloop
  endfacet
  facet normal 0 0 1
    outer loop
      vertex -0.866025 -77.5 0
      vertex -112.5 -84.375 0
      vertex 112.5 -84.375 0
    endloop
  endfacet
  facet normal 0 0 1
    outer loop
      vertex -95 -70 0
      vertex -112.5 -84.375 0
      vertex -50.866 -77.5 0
    endloop
  endfacet
  facet normal 0 0 1
    outer loop
      vertex -112.5 -84.375 0
      vertex -95 -70 0
      vertex -112.5 84.375 0
    endloop
  endfacet
  facet normal -0 0 1
    outer loop
      vertex 50.866 74.5 0
      vertex 95 70 0
      vertex 51.732 76 0
    endloop
  endfacet
  facet normal -0 0 1
    outer loop
      vertex 49.134 74.5 0
      vertex 95 70 0
      vertex 50.866 74.5 0
    endloop
  endfacet
  facet normal -0 0 1
    outer loop
      vertex 1.73205 76 0
      vertex 49.134 74.5 0
      vertex 48.268 76 0
    endloop
  endfacet
  facet normal 0 0 1
    outer loop
      vertex 0.866025 74.5 0
      vertex 49.134 74.5 0
      vertex 1.73205 76 0
    endloop
  endfacet
  facet normal 0 0 1
    outer loop
      vertex 49.134 74.5 0
      vertex 0.866025 74.5 0
      vertex 95 70 0
    endloop
  endfacet
  facet normal -0 0 1
    outer loop
      vertex -0.866025 74.5 0
      vertex 95 70 0
      vertex 0.866025 74.5 0
    endloop
  endfacet
  facet normal -0 0 1
    outer loop
      vertex -48.268 76 0
      vertex -0.866025 74.5 0
      vertex -1.73205 76 0
    endloop
  endfacet
  facet normal 0 0 1
    outer loop
      vertex -49.134 74.5 0
      vertex -0.866025 74.5 0
      vertex -48.268 76 0
    endloop
  endfacet
  facet normal 0 0 1
    outer loop
      vertex -95 70 0
      vertex -0.866025 74.5 0
      vertex -49.134 74.5 0
    endloop
  endfacet
  facet normal 0 0 1
    outer loop
      vertex -95 70 0
      vertex -49.134 74.5 0
      vertex -50.866 74.5 0
    endloop
  endfacet
  facet normal 0 0 1
    outer loop
      vertex -0.866025 74.5 0
      vertex -95 70 0
      vertex 95 70 0
    endloop
  endfacet
  facet normal 0 0 1
    outer loop
      vertex -95 70 0
      vertex -50.866 74.5 0
      vertex -51.732 76 0
    endloop
  endfacet
  facet normal 0.894427 0 -0.447214
    outer loop
      vertex 112.5 84.375 0
      vertex 100 -75 -25
      vertex 100 75 -25
    endloop
  endfacet
  facet normal 0.894427 0 -0.447214
    outer loop
      vertex 100 -75 -25
      vertex 112.5 84.375 0
      vertex 112.5 -84.375 0
    endloop
  endfacet
  facet normal 0 -0.936315 -0.351161
    outer loop
      vertex 1.56072 -79.7679 -12.2856
      vertex 50 -80.0784 -11.4577
      vertex 0 -80.0784 -11.4577
    endloop
  endfacet
  facet normal 0 -0.936315 -0.351161
    outer loop
      vertex 1.56072 -79.7679 -12.2856
      vertex 48.4393 -79.7679 -12.2856
      vertex 50 -80.0784 -11.4577
    endloop
  endfacet
  facet normal 0 -0.936324 -0.351136
    outer loop
      vertex 2.88384 -78.8838 -14.6431
      vertex 48.4393 -79.7679 -12.2856
      vertex 1.56072 -79.7679 -12.2856
    endloop
  endfacet
  facet normal 0 -0.936324 -0.351136
    outer loop
      vertex 2.88384 -78.8838 -14.6431
      vertex 47.1162 -78.8838 -14.6431
      vertex 48.4393 -79.7679 -12.2856
    endloop
  endfacet
  facet normal 0 -0.93633 -0.351121
    outer loop
      vertex 3.76792 -77.5607 -18.1714
      vertex 47.1162 -78.8838 -14.6431
      vertex 2.88384 -78.8838 -14.6431
    endloop
  endfacet
  facet normal 0 -0.93633 -0.351121
    outer loop
      vertex 3.76792 -77.5607 -18.1714
      vertex 46.2321 -77.5607 -18.1714
      vertex 47.1162 -78.8838 -14.6431
    endloop
  endfacet
  facet normal 0 -0.93633 -0.351121
    outer loop
      vertex 4.07836 -76 -22.3333
      vertex 46.2321 -77.5607 -18.1714
      vertex 3.76792 -77.5607 -18.1714
    endloop
  endfacet
  facet normal 0 -0.93633 -0.351121
    outer loop
      vertex 4.07836 -76 -22.3333
      vertex 45.9216 -76 -22.3333
      vertex 46.2321 -77.5607 -18.1714
    endloop
  endfacet
  facet normal 0 -0.936331 -0.35112
    outer loop
      vertex 3.87945 -75 -25
      vertex 45.9216 -76 -22.3333
      vertex 4.07836 -76 -22.3333
    endloop
  endfacet
  facet normal 0 -0.936331 -0.35112
    outer loop
      vertex 45.9216 -76 -22.3333
      vertex 3.87945 -75 -25
      vertex 46.1205 -75 -25
    endloop
  endfacet
  facet normal 0 -0.936315 -0.351161
    outer loop
      vertex -48.4393 -79.7679 -12.2856
      vertex 0 -80.0784 -11.4577
      vertex -50 -80.0784 -11.4577
    endloop
  endfacet
  facet normal 0 -0.936315 -0.351161
    outer loop
      vertex -48.4393 -79.7679 -12.2856
      vertex -1.56072 -79.7679 -12.2856
      vertex 0 -80.0784 -11.4577
    endloop
  endfacet
  facet normal 0 -0.936324 -0.351136
    outer loop
      vertex -47.1162 -78.8838 -14.6431
      vertex -1.56072 -79.7679 -12.2856
      vertex -48.4393 -79.7679 -12.2856
    endloop
  endfacet
  facet normal 0 -0.936324 -0.351136
    outer loop
      vertex -47.1162 -78.8838 -14.6431
      vertex -2.88384 -78.8838 -14.6431
      vertex -1.56072 -79.7679 -12.2856
    endloop
  endfacet
  facet normal 0 -0.93633 -0.351121
    outer loop
      vertex -46.2321 -77.5607 -18.1714
      vertex -2.88384 -78.8838 -14.6431
      vertex -47.1162 -78.8838 -14.6431
    endloop
  endfacet
  facet normal 0 -0.93633 -0.351121
    outer loop
      vertex -46.2321 -77.5607 -18.1714
      vertex -3.76792 -77.5607 -18.1714
      vertex -2.88384 -78.8838 -14.6431
    endloop
  endfacet
  facet normal 0 -0.93633 -0.351121
    outer loop
      vertex -45.9216 -76 -22.3333
      vertex -3.76792 -77.5607 -18.1714
      vertex -46.2321 -77.5607 -18.1714
    endloop
  endfacet
  facet normal 0 -0.93633 -0.351121
    outer loop
      vertex -45.9216 -76 -22.3333
      vertex -4.07836 -76 -22.3333
      vertex -3.76792 -77.5607 -18.1714
    endloop
  endfacet
  facet normal 0 -0.936331 -0.35112
    outer loop
      vertex -46.1205 -75 -25
      vertex -4.07836 -76 -22.3333
      vertex -45.9216 -76 -22.3333
    endloop
  endfacet
  facet normal 0 -0.936331 -0.35112
    outer loop
      vertex -4.07836 -76 -22.3333
      vertex -46.1205 -75 -25
      vertex -3.87945 -75 -25
    endloop
  endfacet
  facet normal -0 -0.93633 -0.351121
    outer loop
      vertex 0 -80.0784 -11.4577
      vertex -112.5 -84.375 0
      vertex -50 -80.0784 -11.4577
    endloop
  endfacet
  facet normal -6.19557e-06 -0.936319 -0.35115
    outer loop
      vertex -112.5 -84.375 0
      vertex -51.5607 -79.7679 -12.2856
      vertex -50 -80.0784 -11.4577
    endloop
  endfacet
  facet normal -2.69745e-06 -0.936325 -0.351135
    outer loop
      vertex -112.5 -84.375 0
      vertex -52.8838 -78.8838 -14.6431
      vertex -51.5607 -79.7679 -12.2856
    endloop
  endfacet
  facet normal 6.71433e-07 -0.936329 -0.351123
    outer loop
      vertex -100 -75 -25
      vertex -52.8838 -78.8838 -14.6431
      vertex -112.5 -84.375 0
    endloop
  endfacet
  facet normal 1.6988e-08 -0.93633 -0.351121
    outer loop
      vertex -52.8838 -78.8838 -14.6431
      vertex -100 -75 -25
      vertex -53.7679 -77.5607 -18.1714
    endloop
  endfacet
  facet normal 9.19634e-08 -0.93633 -0.351121
    outer loop
      vertex -53.7679 -77.5607 -18.1714
      vertex -100 -75 -25
      vertex -54.0784 -76 -22.3333
    endloop
  endfacet
  facet normal 0 -0.936331 -0.35112
    outer loop
      vertex -54.0784 -76 -22.3333
      vertex -100 -75 -25
      vertex -53.8795 -75 -25
    endloop
  endfacet
  facet normal 0 -0.93633 -0.351121
    outer loop
      vertex -112.5 -84.375 0
      vertex 0 -80.0784 -11.4577
      vertex 112.5 -84.375 0
    endloop
  endfacet
  facet normal -0 -0.93633 -0.351121
    outer loop
      vertex 50 -80.0784 -11.4577
      vertex 112.5 -84.375 0
      vertex 0 -80.0784 -11.4577
    endloop
  endfacet
  facet normal 6.19557e-06 -0.936319 -0.35115
    outer loop
      vertex 51.5607 -79.7679 -12.2856
      vertex 112.5 -84.375 0
      vertex 50 -80.0784 -11.4577
    endloop
  endfacet
  facet normal 2.69745e-06 -0.936325 -0.351135
    outer loop
      vertex 52.8838 -78.8838 -14.6431
      vertex 112.5 -84.375 0
      vertex 51.5607 -79.7679 -12.2856
    endloop
  endfacet
  facet normal -1.6988e-08 -0.93633 -0.351121
    outer loop
      vertex 100 -75 -25
      vertex 52.8838 -78.8838 -14.6431
      vertex 53.7679 -77.5607 -18.1714
    endloop
  endfacet
  facet normal -9.19634e-08 -0.93633 -0.351121
    outer loop
      vertex 100 -75 -25
      vertex 53.7679 -77.5607 -18.1714
      vertex 54.0784 -76 -22.3333
    endloop
  endfacet
  facet normal -0 -0.936331 -0.35112
    outer loop
      vertex 100 -75 -25
      vertex 54.0784 -76 -22.3333
      vertex 53.8795 -75 -25
    endloop
  endfacet
  facet normal -6.71433e-07 -0.936329 -0.351123
    outer loop
      vertex 52.8838 -78.8838 -14.6431
      vertex 100 -75 -25
      vertex 112.5 -84.375 0
    endloop
  endfacet
  facet normal 1 -0 0
    outer loop
      vertex -95 -70 0
      vertex -95 70 -20
      vertex -95 70 0
    endloop
  endfacet
  facet normal 1 0 0
    outer loop
      vertex -95 70 -20
      vertex -95 -70 0
      vertex -95 -70 -20
    endloop
  endfacet
  facet normal -1 0 0
    outer loop
      vertex 95 -70 -20
      vertex 95 70 0
      vertex 95 70 -20
    endloop
  endfacet
  facet normal -1 -0 0
    outer loop
      vertex 95 70 0
      vertex 95 -70 -20
      vertex 95 -70 0
    endloop
  endfacet
  facet normal -0 0 1
    outer loop
      vertex -95 70 -20
      vertex 95 -70 -20
      vertex 95 70 -20
    endloop
  endfacet
  facet normal 0 0 1
    outer loop
      vertex 95 -70 -20
      vertex -95 70 -20
      vertex -95 -70 -20
    endloop
  endfacet
  facet normal 0 1 -0
    outer loop
      vertex 95 -70 -20
      vertex -95 -70 0
      vertex 95 -70 0
    endloop
  endfacet
  facet normal 0 1 0
    outer loop
      vertex -95 -70 0
      vertex 95 -70 -20
      vertex -95 -70 -20
    endloop
  endfacet
  facet normal 0 -1 0
    outer loop
      vertex -95 70 -20
      vertex 95 70 0
      vertex -95 70 0
    endloop
  endfacet
  facet normal 0 -1 -0
    outer loop
      vertex 95 70 0
      vertex -95 70 -20
      vertex 95 70 -20
    endloop
  endfacet
endsolid OpenSCAD_Model
